<?xml version="1.0" standalone="no"?>
<!DOCTYPE svg PUBLIC "-//W3C//DTD SVG 20010904//EN"
 "http://www.w3.org/TR/2001/REC-SVG-20010904/DTD/svg10.dtd">
<svg version="1.0" xmlns="http://www.w3.org/2000/svg"
 width="1080.000000pt" height="1080.000000pt" viewBox="0 0 1080.000000 1080.000000"
 preserveAspectRatio="xMidYMid meet">
<metadata>
Created by potrace 1.11, written by Peter Selinger 2001-2013
</metadata>
<g transform="translate(0.000000,1080.000000) scale(0.100000,-0.100000)"
fill="#000000" stroke="none">
<path d="M0 10340 c0 -505 -2 -490 59 -430 36 37 88 50 97 26 4 -10 18 -16 36
-16 29 0 29 0 27 52 -2 33 1 53 9 56 19 6 14 22 -7 22 -13 0 -18 7 -18 25 0
15 5 25 14 25 9 0 13 -6 9 -15 -9 -26 14 -16 26 10 6 14 14 25 18 25 11 0 7
-34 -4 -41 -5 -4 -5 -12 -1 -19 7 -11 23 14 39 63 5 15 9 16 27 6 20 -10 21
-9 16 10 -4 18 -2 20 21 16 15 -3 21 -2 15 1 -17 8 -16 24 0 24 8 0 19 -12 26
-26 l12 -27 19 21 c26 27 28 92 3 92 -13 0 -14 3 -5 12 8 8 15 8 27 -2 12 -10
15 -10 15 3 0 9 9 21 20 27 25 13 26 30 3 31 -11 0 -13 3 -5 6 6 2 12 11 12
18 0 13 21 25 46 25 10 0 12 -8 8 -30 -6 -27 -4 -30 20 -30 35 0 35 -34 1 -66
-18 -16 -25 -19 -25 -9 0 9 -10 15 -25 15 -26 0 -33 -14 -14 -26 19 -11 -1
-57 -43 -96 -23 -21 -45 -38 -49 -38 -4 0 -30 -26 -58 -57 -29 -32 -66 -62
-84 -68 -22 -7 -33 -17 -35 -34 -2 -15 -7 -20 -11 -13 -4 8 -16 -3 -32 -27
-13 -22 -34 -45 -46 -52 -13 -7 -23 -18 -23 -24 0 -19 -37 -48 -51 -39 -8 5
-11 2 -6 -8 6 -17 -50 -78 -71 -78 -8 0 -12 -25 -12 -85 0 -86 9 -104 31 -62
15 28 79 91 102 100 9 3 21 17 27 31 5 13 17 27 27 30 10 3 27 19 38 35 10 17
30 34 42 40 13 6 23 15 23 21 0 5 9 10 20 10 11 0 25 9 32 20 20 31 48 26 48
-9 0 -32 23 -47 54 -35 28 11 18 27 -14 22 -29 -4 -30 -3 -30 34 0 36 2 38 25
32 18 -4 27 -1 31 10 9 24 24 19 24 -9 0 -22 -4 -25 -37 -25 -32 -1 -35 -2
-19 -11 13 -8 25 -8 43 0 33 15 34 14 27 -14 -8 -31 13 -33 49 -5 14 11 42 21
64 22 l38 1 -45 6 -45 6 47 8 c27 5 62 20 84 38 21 16 49 29 64 29 25 0 29 5
36 43 4 23 9 34 12 25 2 -12 17 -20 43 -24 44 -7 53 -31 19 -52 -11 -7 -20
-19 -20 -27 0 -7 -16 -31 -35 -52 -19 -21 -58 -64 -87 -97 -29 -32 -77 -82
-105 -110 -29 -29 -53 -56 -53 -60 0 -8 -18 -31 -39 -49 -39 -35 -111 -112
-111 -119 0 -5 -4 -7 -9 -3 -5 3 -25 -13 -43 -36 -18 -23 -69 -78 -113 -124
-45 -45 -79 -88 -77 -94 2 -6 -1 -10 -7 -9 -5 2 -44 -33 -85 -77 l-76 -80 0
-65 0 -64 47 44 c26 25 51 50 55 56 4 6 91 96 193 200 102 104 185 190 185
191 0 2 24 26 53 56 28 29 68 71 88 93 20 22 43 44 52 47 10 4 17 13 17 22 0
8 5 15 11 15 6 0 68 57 137 126 70 69 156 155 192 190 36 35 70 64 76 64 13 0
54 43 54 57 0 6 15 24 34 39 33 28 37 51 13 82 -13 17 0 15 34 -5 29 -17 56
-10 29 7 -10 7 -11 10 -2 10 6 0 12 10 12 23 0 17 2 19 10 7 10 -17 17 -13 22
15 2 12 -2 19 -9 18 -7 -2 -13 4 -13 13 0 8 5 12 10 9 12 -7 11 -16 16 117 4
103 -2 167 -26 273 -6 28 -14 79 -18 115 l-7 65 -632 3 -633 2 0 -460z m1106
405 c-13 -25 -62 -75 -73 -75 -3 0 -12 -8 -20 -17 -12 -16 -13 -15 -7 10 5 20
2 27 -9 27 -9 0 -19 5 -22 11 -9 14 36 61 52 55 7 -3 13 -1 13 4 0 6 18 10 39
10 39 0 40 0 27 -25z m-131 -105 c-3 -6 -16 -9 -28 -9 -17 1 -18 2 -4 6 9 2
17 14 17 26 1 20 2 20 11 4 5 -9 7 -22 4 -27z m-340 -310 c3 -5 -1 -10 -10
-10 -9 0 -13 5 -10 10 3 6 8 10 10 10 2 0 7 -4 10 -10z m656 -65 c7 19 8 19 8
-2 1 -17 -5 -23 -20 -23 -15 0 -19 4 -15 16 3 9 7 21 7 27 1 7 4 1 7 -13 4
-23 5 -24 13 -5z m-301 -205 c-19 -13 -30 -13 -30 0 0 6 10 10 23 10 18 0 19
-2 7 -10z"/>
<path d="M3626 10754 c-17 -124 6 -250 63 -353 34 -64 134 -174 197 -217 47
-34 157 -74 230 -86 171 -26 336 70 423 248 31 63 33 75 33 164 0 106 -14 149
-71 238 l-34 52 -417 0 -417 0 -7 -46z m781 -199 c33 -22 39 -68 13 -110 -22
-36 -57 -51 -107 -46 -25 2 -73 53 -73 77 0 84 91 127 167 79z"/>
<path d="M6252 10754 c18 -25 43 -57 56 -71 12 -13 22 -28 22 -33 0 -8 114
-156 144 -186 9 -8 16 -21 16 -27 0 -7 9 -18 20 -25 11 -7 20 -18 20 -25 0 -6
13 -26 28 -44 15 -18 40 -50 56 -73 17 -22 33 -40 38 -40 4 0 8 -5 8 -11 0 -6
14 -30 30 -54 17 -24 30 -48 30 -54 0 -6 5 -11 10 -11 6 0 10 -6 10 -13 0 -8
9 -22 20 -32 11 -10 20 -23 20 -30 0 -7 9 -20 20 -30 11 -10 20 -26 20 -35 0
-9 9 -25 20 -35 11 -10 25 -33 32 -51 7 -19 16 -34 20 -34 4 0 8 -6 8 -14 0
-8 7 -16 15 -20 8 -3 12 -11 9 -19 -3 -8 2 -20 11 -27 8 -7 15 -17 15 -22 0
-5 15 -42 34 -81 19 -40 38 -85 42 -100 3 -16 12 -31 20 -34 7 -2 11 -10 8
-17 -3 -7 0 -26 7 -42 6 -16 13 -49 15 -74 2 -25 7 -65 10 -90 3 -25 10 -83
14 -130 5 -47 11 -110 14 -140 10 -95 6 -440 -7 -560 -7 -64 -12 -176 -11
-250 1 -125 3 -141 32 -223 18 -49 32 -98 32 -110 0 -24 16 -80 36 -122 20
-43 36 -140 34 -207 0 -32 1 -62 4 -66 3 -5 36 6 73 24 104 50 152 60 219 46
55 -11 113 -2 166 28 10 6 64 12 120 15 57 3 116 8 131 11 16 3 34 0 42 -6 12
-10 15 -10 15 0 0 10 16 11 63 7 68 -6 112 6 64 18 -15 4 -27 13 -27 20 0 14
-29 29 -38 20 -3 -3 0 -5 6 -5 7 0 12 -4 12 -10 0 -5 -18 -10 -40 -10 -23 0
-40 -5 -40 -11 0 -7 -13 -9 -37 -4 -56 10 -115 8 -122 -4 -4 -6 -12 -7 -21 -1
-13 8 -12 10 3 10 9 0 17 5 17 10 0 6 19 10 43 11 32 0 37 2 22 9 -18 8 -17 9
7 9 28 1 49 26 41 48 -2 7 7 15 22 19 21 5 24 9 13 16 -10 7 -10 11 0 15 6 2
12 9 12 14 0 5 8 17 18 28 9 10 26 31 37 45 11 15 25 33 32 40 7 8 9 16 6 20
-3 3 2 8 11 12 10 4 16 17 16 35 0 55 -34 28 -46 -36 -9 -48 -54 -91 -54 -51
0 21 -19 30 -35 16 -9 -7 -14 -28 -13 -51 1 -38 -15 -69 -35 -69 -6 0 -21 9
-33 21 -19 18 -25 19 -43 7 -12 -7 -21 -19 -21 -28 0 -26 -29 12 -36 47 -5 26
-3 34 12 40 24 9 44 28 44 42 0 15 47 14 54 -1 2 -7 4 -4 4 7 -4 70 2 85 28
85 17 0 28 6 31 20 3 11 9 20 14 20 5 0 9 6 9 14 0 15 -37 32 -47 22 -4 -3 1
-6 10 -6 9 0 17 -4 17 -10 0 -5 -5 -10 -10 -10 -6 0 -22 -11 -35 -25 -24 -23
-37 -29 -62 -26 -17 1 -17 57 -1 67 9 6 5 10 -12 15 -19 5 -14 7 23 8 26 1 47
4 47 9 0 4 -21 6 -47 5 l-48 -2 48 13 c27 8 56 21 66 30 10 9 25 16 33 16 26
0 89 30 95 45 3 8 11 15 19 15 14 0 18 -11 15 -42 -1 -10 3 -18 9 -18 8 0 11
13 8 37 -4 29 1 43 19 63 13 14 29 39 35 57 7 18 18 35 25 37 16 7 17 -6 1
-22 -9 -9 -7 -12 9 -12 12 0 24 -6 26 -12 3 -8 6 -6 6 5 1 9 6 17 11 17 6 0
14 -8 17 -17 4 -10 18 -28 31 -39 14 -12 21 -27 18 -33 -4 -6 -2 -9 6 -6 8 3
25 -14 43 -45 17 -27 33 -50 38 -50 4 0 7 -7 7 -15 0 -8 5 -15 10 -15 16 0 12
14 -10 38 -11 12 -20 28 -20 37 0 9 -7 18 -15 21 -8 4 -12 10 -9 15 3 5 -2 19
-10 31 -23 33 -21 51 5 43 12 -4 24 -2 29 4 3 7 23 14 43 18 29 4 37 2 37 -10
0 -8 -6 -18 -12 -20 -10 -4 -10 -6 0 -6 6 -1 12 -12 12 -25 0 -20 4 -23 21
-19 12 3 24 0 29 -6 4 -7 16 -14 26 -15 20 -3 22 -21 9 -63 -6 -17 -3 -23 9
-23 9 0 16 -6 16 -14 0 -23 33 -56 66 -65 27 -8 35 -5 63 21 18 16 34 43 38
59 4 20 12 29 24 29 11 0 19 7 19 17 0 15 2 15 18 0 12 -11 35 -15 85 -13 42
1 67 -2 67 -8 0 -7 -18 -10 -45 -8 -36 3 -45 1 -45 -12 0 -14 10 -16 56 -15
37 2 58 7 61 16 4 11 9 11 24 -3 11 -9 19 -22 19 -28 0 -6 20 -16 44 -22 38
-8 43 -8 38 6 -5 13 -3 13 10 2 10 -8 26 -10 44 -6 17 4 25 3 21 -3 -4 -6 3
-8 16 -6 17 4 26 -2 35 -22 15 -32 36 -28 40 7 3 21 7 24 28 20 13 -2 24 -8
24 -12 0 -4 15 -10 33 -13 125 -22 142 -24 150 -13 5 8 10 7 16 -4 5 -8 8 -17
6 -20 -8 -12 16 -81 26 -75 5 4 9 22 9 42 0 28 3 34 16 29 9 -3 22 -6 30 -6 8
0 13 -5 11 -11 -2 -12 66 -39 101 -39 12 0 22 5 22 10 0 6 7 10 15 10 9 0 15
-9 15 -25 0 -24 2 -24 48 -19 26 3 55 7 65 9 9 2 22 -5 27 -16 6 -10 21 -19
34 -19 38 0 96 -29 105 -52 8 -22 8 -22 26 5 15 24 22 27 49 21 17 -3 36 -10
41 -13 6 -4 29 -13 52 -19 34 -10 42 -17 45 -39 3 -22 9 -27 40 -30 20 -2 39
1 42 6 3 5 -5 25 -19 45 -14 20 -25 39 -25 41 0 13 32 2 53 -18 19 -17 34 -22
64 -19 74 8 114 6 122 -6 4 -7 33 -13 69 -14 41 -1 68 -7 80 -18 29 -27 92
-62 92 -52 0 6 -6 13 -12 15 -10 4 -10 6 0 6 9 1 12 311 12 1516 l0 1515
-2290 0 -2291 0 33 -46z m1835 -2336 c-2 -13 -4 -3 -4 22 0 25 2 35 4 23 2
-13 2 -33 0 -45z m-117 32 c0 -12 -40 -34 -48 -26 -3 4 3 13 14 21 22 17 34
19 34 5z m-193 -46 c-3 -3 -12 -4 -19 -1 -8 3 -5 6 6 6 11 1 17 -2 13 -5z
m390 -26 c-3 -8 -6 -5 -6 6 -1 11 2 17 5 13 3 -3 4 -12 1 -19z m166 -72 c-3
-4 -9 -2 -14 5 -13 22 -11 31 5 17 8 -7 12 -17 9 -22z m-256 3 c15 -13 17 -45
3 -54 -6 -4 -8 -10 -5 -15 7 -12 -25 -16 -75 -9 -43 6 -43 6 -10 8 19 2 29 5
23 8 -8 2 -13 22 -13 45 0 40 0 40 32 34 17 -3 37 -11 45 -17z m-160 -51 c-2
-13 -4 -3 -4 22 0 25 2 35 4 23 2 -13 2 -33 0 -45z m663 58 c0 -3 -4 -8 -10
-11 -5 -3 -10 -1 -10 4 0 6 5 11 10 11 6 0 10 -2 10 -4z m-860 -46 c0 -5 -5
-10 -11 -10 -5 0 -7 5 -4 10 3 6 8 10 11 10 2 0 4 -4 4 -10z m120 -50 c0 -5
-5 -10 -11 -10 -5 0 -7 5 -4 10 3 6 8 10 11 10 2 0 4 -4 4 -10z m47 -4 c-3 -7
0 -19 6 -25 8 -8 2 -11 -23 -11 -26 0 -31 3 -20 10 8 5 16 14 16 20 2 18 4 20
15 20 6 0 9 -6 6 -14z m33 -76 c0 -5 -10 -10 -22 -10 -19 0 -20 2 -8 10 19 13
30 13 30 0z m1535 -70 c-3 -5 -12 -7 -20 -3 -21 7 -19 13 6 13 11 0 18 -4 14
-10z m-1665 -70 c0 -5 -8 -10 -17 -10 -15 0 -16 2 -3 10 19 12 20 12 20 0z
m33 -70 c16 -19 16 -20 -8 -20 -18 0 -25 5 -25 20 0 11 3 20 8 20 4 0 15 -9
25 -20z m-45 -37 c-10 -2 -18 -11 -18 -19 0 -8 -4 -14 -10 -14 -14 0 -12 27 3
33 6 3 19 5 27 5 10 0 9 -2 -2 -5z m-38 -63 c0 -5 -4 -10 -10 -10 -5 0 -10 5
-10 10 0 6 5 10 10 10 6 0 10 -4 10 -10z m108 -77 c-10 -2 -26 -2 -35 0 -10 3
-2 5 17 5 19 0 27 -2 18 -5z m-63 -23 c-3 -5 -10 -10 -16 -10 -5 0 -9 5 -9 10
0 6 7 10 16 10 8 0 12 -4 9 -10z"/>
<path d="M481 10174 c0 -11 3 -14 6 -6 3 7 2 16 -1 19 -3 4 -6 -2 -5 -13z"/>
<path d="M1065 9810 c3 -5 8 -10 11 -10 2 0 4 5 4 10 0 6 -5 10 -11 10 -5 0
-7 -4 -4 -10z"/>
<path d="M5815 9800 c17 -19 51 -37 110 -60 64 -24 73 -33 110 -113 107 -232
168 -350 195 -377 3 -3 18 -25 35 -50 63 -96 211 -259 242 -266 13 -4 23 -10
23 -15 0 -5 24 -22 52 -39 62 -35 130 -48 162 -31 25 14 81 103 92 146 4 17
10 35 14 40 17 23 40 147 40 216 0 53 -6 85 -20 114 -11 22 -17 29 -14 15 4
-14 9 -64 11 -112 4 -76 1 -99 -22 -173 -15 -47 -31 -88 -36 -91 -5 -3 -9 -13
-9 -22 0 -10 -14 -34 -31 -55 -27 -32 -36 -37 -74 -37 -70 0 -138 42 -248 153
-53 55 -122 135 -153 178 -59 84 -134 220 -134 243 0 8 -4 16 -8 18 -5 2 -26
41 -46 88 -20 47 -41 93 -47 103 -13 23 2 28 71 23 57 -3 180 26 180 44 0 18
-41 20 -96 4 -85 -24 -233 -2 -350 52 -62 29 -73 30 -49 4z"/>
<path d="M302 9778 c3 -7 18 -14 34 -15 20 -1 22 0 7 4 -13 2 -23 9 -23 14 0
5 -5 9 -11 9 -6 0 -9 -6 -7 -12z"/>
<path d="M6665 9636 c-8 -19 -19 -38 -25 -41 -15 -9 -2 -25 19 -25 19 0 51 53
51 84 0 29 -31 17 -45 -18z"/>
<path d="M1550 9510 c0 -5 5 -10 10 -10 6 0 10 5 10 10 0 6 -4 10 -10 10 -5 0
-10 -4 -10 -10z"/>
<path d="M1600 9460 c0 -14 -51 -59 -67 -60 -7 0 -13 -9 -13 -20 0 -20 -17
-26 -62 -22 -13 1 -18 -5 -18 -22 0 -16 -7 -27 -20 -31 -13 -4 -20 -15 -20
-32 0 -20 -4 -24 -17 -18 -10 4 -22 7 -28 6 -5 0 -21 -2 -35 -3 -18 -2 -25 2
-25 14 0 29 -21 43 -47 30 -23 -11 -23 -11 5 -11 20 -1 27 -6 27 -21 0 -22
-10 -26 -26 -10 -14 14 -74 -7 -74 -26 0 -8 5 -14 11 -14 8 0 10 -17 7 -50 -5
-48 -3 -52 23 -66 36 -18 36 -27 2 -43 -23 -11 -25 -14 -11 -27 12 -12 22 -13
49 -6 19 6 26 11 17 11 -19 1 -26 31 -8 31 6 0 10 -4 10 -9 0 -14 52 -23 63
-12 6 6 17 7 26 1 11 -5 24 -2 40 11 13 10 20 19 15 19 -4 0 -2 6 4 12 10 10
15 10 23 -2 8 -11 12 -12 16 -2 7 19 23 14 23 -7 0 -10 7 -24 15 -31 12 -10
15 -10 15 0 0 9 3 10 14 1 15 -13 24 -5 50 47 14 28 21 32 56 32 38 0 40 -1
34 -25 -4 -15 -2 -25 5 -25 6 0 8 7 4 15 -8 23 61 18 115 -8 32 -15 42 -26 42
-44 0 -13 4 -22 10 -18 5 3 7 12 3 20 -3 9 1 15 11 15 9 0 16 -7 16 -15 0 -8
5 -15 10 -15 6 0 10 11 10 25 0 14 5 25 10 25 6 0 10 -6 10 -14 0 -7 14 -16
30 -19 18 -4 30 -13 30 -22 0 -9 5 -13 10 -10 6 3 10 15 10 26 0 11 7 19 16
19 10 0 14 -6 11 -14 -4 -10 4 -15 28 -18 33 -4 35 -3 40 37 4 22 7 61 8 87 2
37 6 48 18 48 9 0 20 -10 24 -22 l7 -23 7 25 c7 23 8 22 15 -14 4 -21 14 -45
22 -53 8 -8 14 -26 14 -41 0 -15 5 -34 10 -42 9 -13 11 -13 21 0 8 11 9 7 4
-17 -7 -37 2 -45 40 -34 31 8 65 -11 65 -36 0 -9 8 -11 24 -7 18 4 28 0 38
-15 17 -28 24 -26 37 9 7 23 16 30 35 30 15 0 26 5 26 10 0 6 5 10 10 10 6 0
10 -7 10 -15 0 -18 37 -38 56 -31 8 3 14 1 14 -5 0 -6 6 -9 13 -6 6 2 17 -8
24 -22 l11 -26 1 30 c1 21 4 26 10 16 5 -7 13 -11 19 -7 6 3 14 1 18 -5 4 -8
9 -7 15 2 7 11 9 11 9 1 0 -7 5 -10 10 -7 14 9 12 52 -2 58 -8 3 -6 6 4 6 25
1 59 -39 52 -61 -7 -22 5 -23 20 -2 11 14 15 13 37 -10 13 -14 28 -26 32 -26
19 0 83 35 99 54 l18 21 0 -22 c0 -13 -4 -23 -10 -23 -5 0 -10 -4 -10 -10 0
-18 22 -11 46 16 13 14 24 21 24 15 0 -5 8 -7 19 -4 23 6 44 49 36 74 -5 14 1
22 19 31 17 7 26 19 25 32 -1 16 -2 17 -6 4 -2 -10 -10 -15 -19 -11 -7 3 -17
-2 -20 -11 -11 -28 -22 -17 -21 19 1 19 5 35 11 35 6 0 5 5 -2 12 -8 8 -15 8
-27 -2 -12 -10 -15 -10 -15 4 0 21 -26 21 -38 0 -14 -25 -31 -8 -38 37 -5 32
-9 37 -21 28 -11 -10 -11 -15 2 -35 8 -13 15 -30 15 -39 0 -9 7 -27 16 -40 15
-23 15 -25 0 -25 -9 0 -16 8 -16 20 0 17 -7 20 -46 20 -44 0 -46 1 -40 25 4
14 2 25 -4 25 -19 0 -10 39 10 45 24 8 26 30 5 39 -11 4 -19 -3 -25 -19 -5
-14 -14 -25 -19 -25 -5 0 -13 -9 -16 -20 -3 -11 -14 -20 -24 -20 -9 0 -22 -5
-28 -11 -12 -12 -12 -11 -39 39 l-16 27 4 -26 c5 -25 4 -26 -21 -13 -14 8 -34
14 -43 14 -10 0 -18 4 -18 9 0 5 -18 11 -40 15 -31 5 -40 11 -40 25 0 17 -5
19 -32 15 -18 -3 -43 1 -54 8 -66 39 -129 68 -143 66 -9 -2 -24 5 -33 14 -10
10 -30 21 -45 24 -16 4 -33 14 -39 23 -10 12 -17 13 -35 5 -26 -12 -69 -12
-141 0 -38 7 -50 5 -64 -8 -10 -10 -23 -14 -33 -10 -9 4 -28 9 -43 12 -15 2
-25 8 -23 13 3 4 -14 13 -37 19 -24 6 -51 15 -60 20 -10 6 -25 10 -33 10 -9 0
-18 7 -21 15 -8 21 -31 19 -56 -5 -30 -28 -40 -25 -36 12 2 24 -1 33 -14 36
-10 2 -18 -2 -18 -8z m440 -120 c0 -5 -5 -10 -11 -10 -5 0 -7 5 -4 10 3 6 8
10 11 10 2 0 4 -4 4 -10z m-600 -82 c0 -19 -2 -20 -10 -8 -13 19 -13 30 0 30
6 0 10 -10 10 -22z m637 0 c-3 -8 -6 -5 -6 6 -1 11 2 17 5 13 3 -3 4 -12 1
-19z m473 -68 c0 -5 -6 -10 -14 -10 -8 0 -18 5 -21 10 -3 6 3 10 14 10 12 0
21 -4 21 -10z m-17 -130 c3 -11 1 -20 -4 -20 -5 0 -9 9 -9 20 0 11 2 20 4 20
2 0 6 -9 9 -20z m497 -5 c0 -8 -7 -15 -15 -15 -9 0 -12 6 -9 15 4 8 10 15 15
15 5 0 9 -7 9 -15z m-70 -85 c0 -13 -7 -20 -20 -20 -22 0 -28 25 -7 33 22 10
27 7 27 -13z"/>
<path d="M2110 9450 c0 -5 7 -7 15 -4 8 4 15 8 15 10 0 2 -7 4 -15 4 -8 0 -15
-4 -15 -10z"/>
<path d="M1441 9424 c0 -11 3 -14 6 -6 3 7 2 16 -1 19 -3 4 -6 -2 -5 -13z"/>
<path d="M2473 9345 c-3 -9 -3 -18 -1 -21 3 -3 8 4 11 16 6 23 -1 27 -10 5z"/>
<path d="M2510 9331 c-21 -6 -22 -8 -7 -14 9 -3 23 -4 31 -1 8 3 24 -4 36 -16
12 -12 28 -20 36 -18 25 5 17 23 -15 32 -17 5 -31 13 -31 17 0 10 -14 10 -50
0z"/>
<path d="M2640 9269 c0 -5 5 -7 10 -4 6 3 10 8 10 11 0 2 -4 4 -10 4 -5 0 -10
-5 -10 -11z"/>
<path d="M2731 9264 c0 -11 3 -14 6 -6 3 7 2 16 -1 19 -3 4 -6 -2 -5 -13z"/>
<path d="M2508 9253 c7 -3 16 -2 19 1 4 3 -2 6 -13 5 -11 0 -14 -3 -6 -6z"/>
<path d="M2736 9213 c4 -15 11 -29 16 -31 4 -2 8 -10 8 -18 0 -8 7 -14 15 -14
20 0 19 19 0 26 -10 4 -13 13 -10 25 4 12 -1 22 -15 29 -19 10 -20 9 -14 -17z"/>
<path d="M996 9065 c-14 -13 -26 -26 -26 -28 0 -3 -28 -33 -61 -68 -34 -35
-76 -87 -95 -116 -18 -29 -46 -60 -61 -70 -15 -10 -41 -34 -58 -53 -16 -19
-65 -72 -108 -119 -42 -46 -80 -93 -83 -105 -3 -11 -29 -41 -57 -65 -28 -24
-66 -62 -85 -85 -19 -23 -65 -74 -103 -114 -38 -40 -69 -74 -69 -76 0 -4 -68
-79 -133 -147 l-58 -60 3 -76 3 -76 120 134 c65 74 136 150 157 170 21 20 38
38 38 41 0 5 65 76 150 165 22 23 40 47 40 53 0 6 35 47 78 90 125 127 210
223 252 284 24 35 80 96 147 162 l63 60 0 62 c0 70 -10 77 -54 37z"/>
<path d="M1810 9030 c0 -5 5 -10 10 -10 6 0 10 5 10 10 0 6 -4 10 -10 10 -5 0
-10 -4 -10 -10z"/>
<path d="M2311 8944 c0 -11 3 -14 6 -6 3 7 2 16 -1 19 -3 4 -6 -2 -5 -13z"/>
<path d="M8127 8143 c-11 -10 -8 -63 3 -63 14 0 24 50 13 61 -5 5 -12 6 -16 2z"/>
<path d="M8440 8090 c0 -5 5 -10 10 -10 6 0 10 5 10 10 0 6 -4 10 -10 10 -5 0
-10 -4 -10 -10z"/>
<path d="M7920 8060 c0 -5 5 -10 11 -10 5 0 7 5 4 10 -3 6 -8 10 -11 10 -2 0
-4 -4 -4 -10z"/>
<path d="M9572 7878 c11 -51 24 -67 14 -19 -3 18 -6 40 -6 47 0 8 -4 14 -9 14
-5 0 -5 -18 1 -42z"/>
<path d="M10160 7826 c0 -8 7 -17 16 -20 29 -11 34 -6 14 14 -24 24 -30 25
-30 6z"/>
<path d="M8135 7660 c3 -5 13 -10 21 -10 8 0 12 5 9 10 -3 6 -13 10 -21 10 -8
0 -12 -4 -9 -10z"/>
<path d="M7294 7425 c-19 -25 -19 -25 -34 -5 -17 22 -50 19 -50 -4 0 -16 -42
-56 -58 -56 -7 0 -12 -3 -12 -8 0 -7 -37 -25 -77 -37 -32 -9 -38 -64 -37 -340
2 -290 8 -361 35 -439 22 -64 19 -119 -8 -166 -25 -43 -103 -82 -198 -99 -27
-5 -111 -21 -185 -35 -191 -37 -261 -49 -295 -51 -16 -2 -79 -12 -140 -23 -60
-12 -141 -24 -180 -27 -38 -4 -90 -8 -115 -11 -25 -2 -63 -6 -85 -9 -22 -2
-74 -7 -115 -10 -75 -6 -125 -12 -125 -15 0 -1 -22 -3 -50 -5 -72 -6 -137 -13
-240 -26 -49 -7 -103 -12 -120 -12 -16 0 -33 -4 -37 -10 -4 -7 -11 -7 -20 1
-9 7 -18 8 -24 3 -5 -5 -63 -12 -129 -15 -164 -9 -238 -17 -252 -28 -7 -6 -24
-7 -37 -4 -15 4 -26 1 -28 -6 -4 -10 -10 -10 -31 -1 -16 8 -27 9 -27 3 0 -12
-37 -13 -44 -2 -6 10 -57 9 -74 -2 -7 -4 -12 -3 -12 2 0 6 -7 13 -16 16 -15 6
-15 4 -3 -11 12 -15 12 -16 -3 -10 -10 3 -20 2 -23 -3 -3 -5 -15 -7 -27 -5
-12 3 -28 -1 -37 -8 -12 -9 -13 -9 -7 1 4 6 2 12 -3 12 -6 0 -11 -6 -11 -12 0
-10 -2 -10 -8 0 -9 14 -42 6 -42 -10 0 -6 -6 -5 -15 2 -12 10 -15 10 -15 -4 0
-9 -4 -16 -10 -16 -5 0 -10 7 -10 15 0 8 -5 15 -11 15 -6 0 -9 -7 -6 -14 6
-16 -16 -12 -40 6 -7 5 -14 5 -17 -1 -3 -5 0 -12 6 -14 10 -4 10 -6 0 -6 -8
-1 -16 9 -20 21 -5 20 -6 20 -12 3 -3 -10 -17 -20 -31 -22 -16 -2 -20 0 -10 6
17 11 0 22 -18 11 -8 -5 -10 -13 -5 -21 6 -11 5 -12 -7 -3 -11 8 -74 12 -74 4
0 -8 -42 -6 -53 3 -11 9 -17 8 -26 -4 -12 -17 -86 -25 -86 -10 0 10 -14 9 -50
-6 -19 -8 -27 -7 -37 6 -9 11 -12 12 -13 3 0 -7 -4 -10 -10 -7 -5 3 -10 0 -10
-7 -1 -8 -6 -6 -15 6 -13 17 -15 18 -15 3 0 -10 -8 -17 -20 -17 -11 0 -20 5
-20 10 0 6 -4 10 -10 10 -5 0 -10 -7 -10 -15 0 -21 -16 -19 -40 5 -20 20 -21
20 -24 -2 -2 -16 -26 -22 -26 -6 0 11 -2 10 -9 -1 -9 -14 -89 -23 -97 -10 -2
4 -14 5 -26 1 -14 -3 -19 -2 -14 6 10 17 -9 15 -23 -2 -12 -14 -57 -11 -79 7
-9 7 -16 7 -24 -1 -15 -15 -52 -16 -43 -2 9 15 -4 12 -21 -5 -16 -16 -73 -10
-86 9 -5 7 -8 3 -8 -9 -1 -19 -1 -19 -19 3 -22 25 -33 29 -25 7 4 -9 0 -15
-10 -15 -9 0 -16 6 -16 14 0 8 -5 18 -12 22 -7 5 -9 1 -6 -12 5 -18 0 -20 -53
-20 -33 -1 -59 3 -59 8 0 4 7 8 15 8 17 0 19 9 5 30 -8 13 -10 12 -10 -2 0
-29 -20 -20 -26 12 -10 45 -31 58 -26 14 4 -28 1 -33 -12 -28 -9 3 -13 10 -10
15 9 15 -26 61 -41 55 -8 -3 -17 -1 -20 4 -3 5 -13 6 -22 3 -9 -4 -19 1 -25
10 -5 10 -20 17 -36 16 -15 -1 -20 -3 -10 -6 9 -2 24 -20 33 -40 l17 -36 19
24 19 24 -3 -25 c-1 -14 3 -25 11 -26 6 -1 19 -2 27 -3 23 -2 18 -32 -6 -38
-21 -6 -21 -7 -4 -20 17 -11 17 -13 2 -13 -16 0 -41 33 -31 42 2 3 -2 11 -11
18 -21 17 -29 7 -15 -19 15 -30 -13 -29 -36 2 -12 16 -15 17 -10 4 3 -10 2
-16 -3 -13 -10 7 -63 -19 -55 -26 2 -3 -2 -8 -10 -11 -10 -4 -13 -1 -10 8 4
10 -1 12 -18 8 l-23 -5 22 16 c12 9 27 14 35 11 17 -6 45 11 35 22 -5 4 -12 1
-18 -7 -8 -13 -10 -13 -18 -1 -7 11 -13 10 -32 -8 -12 -11 -27 -21 -32 -21 -5
0 -4 -6 2 -14 10 -12 5 -14 -24 -14 -21 0 -39 6 -41 13 -5 13 -44 9 -44 -4 0
-4 -65 -7 -145 -7 -80 1 -145 -2 -145 -5 0 -9 -29 -11 -160 -7 -33 1 -129 -8
-140 -12 -14 -6 -116 3 -125 11 -5 5 -18 9 -30 9 -20 0 -84 59 -118 110 -10
14 -33 45 -52 70 -47 62 -76 127 -80 178 -5 60 -24 78 -87 82 -140 11 -350 0
-356 -18 -2 -7 -8 -9 -14 -6 -5 3 -12 -3 -15 -15 -3 -12 -13 -21 -23 -21 -18
0 -70 -53 -70 -70 0 -5 -9 -11 -19 -15 -13 -4 -18 -12 -14 -21 4 -12 1 -13
-20 -3 -16 7 -31 8 -42 2 -11 -7 -30 -5 -57 4 -21 7 -43 11 -47 8 -5 -2 -16 4
-26 15 -20 22 -55 27 -55 7 0 -9 -12 -11 -39 -9 -24 2 -42 -1 -46 -9 -6 -8 -4
-10 6 -4 8 5 5 -1 -5 -14 -13 -14 -23 -18 -30 -11 -14 14 -36 13 -36 -3 0 -8
-24 -18 -62 -26 -34 -7 -78 -21 -98 -31 -21 -11 -47 -16 -63 -13 -20 4 -27 1
-27 -10 0 -8 6 -17 13 -20 21 -8 1 -18 -52 -26 -53 -8 -76 -20 -53 -28 6 -3
12 -18 12 -34 0 -19 5 -29 15 -29 8 0 15 -4 15 -10 0 -5 -7 -10 -15 -10 -8 0
-15 5 -15 10 0 6 -7 10 -15 10 -9 0 -12 6 -9 15 6 14 -6 19 -43 18 -7 -1 -13
3 -13 8 0 10 -40 -27 -41 -38 -2 -15 -21 -33 -30 -27 -5 3 -9 -408 -9 -977 l0
-982 119 6 c66 4 156 14 200 23 73 15 87 15 148 1 69 -15 103 -10 103 16 1 7
23 55 50 107 27 52 57 111 65 130 9 19 22 49 30 65 7 17 21 48 30 70 9 22 27
63 40 90 33 69 52 116 86 211 15 45 39 106 52 135 13 30 31 80 41 112 10 32
29 78 42 103 13 25 24 51 24 58 0 59 95 172 166 198 19 7 34 15 34 18 0 3 20
17 45 30 38 21 47 22 54 11 15 -24 22 -93 11 -106 -7 -9 -2 -22 19 -49 17 -21
27 -44 24 -52 -3 -8 0 -14 5 -14 11 0 35 -37 48 -72 4 -12 17 -18 38 -18 25 0
39 -8 62 -36 40 -50 47 -63 50 -98 8 -71 12 -87 28 -105 10 -11 16 -28 15 -38
-4 -32 28 -151 48 -174 7 -8 13 -20 13 -26 0 -11 94 -78 127 -90 67 -25 173
-106 173 -132 0 -9 6 -28 14 -43 11 -20 11 -28 3 -32 -9 -3 -8 -5 1 -5 6 -1
12 -10 12 -21 0 -11 4 -20 9 -20 9 0 31 -56 36 -90 5 -33 18 -60 26 -54 5 3 9
-1 9 -8 0 -7 9 -19 20 -26 11 -7 20 -20 20 -30 0 -10 16 -36 35 -58 19 -21 35
-42 35 -46 0 -5 7 -8 16 -8 8 0 12 -5 9 -10 -11 -17 62 -78 108 -91 23 -6 49
-12 57 -13 8 -2 22 -5 30 -9 13 -6 132 -27 153 -27 40 0 -113 63 -158 65 -5 1
-20 6 -32 13 -12 7 -29 12 -37 12 -9 0 -16 5 -16 10 0 6 -7 10 -15 10 -9 0
-18 6 -21 14 -3 8 -12 12 -19 10 -22 -9 -28 16 -9 37 11 12 30 19 52 19 20 0
50 5 69 12 44 16 89 5 270 -65 124 -48 351 -112 468 -133 22 -4 60 -18 85 -31
38 -20 40 -23 15 -18 -91 19 -342 34 -427 25 -7 0 -25 2 -40 6 -16 3 -28 2
-28 -3 0 -5 28 -15 63 -20 34 -6 80 -16 102 -22 22 -5 76 -11 120 -13 44 -2
82 -6 85 -10 3 -4 44 -7 90 -8 105 -2 109 -2 90 10 -32 20 2 21 41 0 25 -12
60 -21 83 -21 23 0 50 1 61 1 51 1 412 -20 515 -30 63 -6 152 -20 198 -31 103
-24 330 -98 338 -110 3 -5 13 -9 23 -9 10 0 31 -12 46 -26 l28 -25 -44 -40
c-42 -38 -74 -49 -81 -28 -2 7 -12 7 -29 0 -37 -14 -121 -22 -114 -10 8 13 -2
11 -25 -3 -16 -10 -26 -10 -52 4 -18 10 -53 23 -78 29 -43 11 -47 10 -94 -20
l-50 -31 66 0 c65 0 69 -1 183 -64 33 -18 106 -96 100 -106 -9 -15 2 -12 19 6
11 11 16 12 16 3 0 -7 10 1 23 17 12 17 27 29 34 27 6 -2 19 10 29 26 13 23
23 29 37 25 13 -4 20 0 24 14 5 22 44 37 53 22 4 -6 14 -4 26 6 18 15 18 15
-3 9 -17 -5 -23 -2 -23 9 0 10 9 16 25 16 14 0 25 -5 25 -12 0 -7 5 -5 13 4 6
9 26 18 42 20 17 2 29 8 28 16 -2 6 3 12 11 12 8 0 17 6 19 13 4 9 8 8 17 -3
9 -12 10 -11 5 8 -4 13 -2 22 4 22 6 0 11 -4 11 -10 0 -5 7 -10 15 -10 8 0 15
-5 15 -12 0 -6 3 -8 6 -5 4 4 2 13 -5 20 -17 21 39 43 68 27 14 -7 21 -7 21 0
0 5 10 10 23 10 29 1 57 23 57 45 0 11 5 15 14 12 8 -3 30 -9 48 -12 30 -6 36
-3 46 19 14 31 32 34 32 6 0 -11 6 -20 13 -20 8 0 7 -4 -3 -10 -11 -7 -4 -10
28 -10 31 0 42 4 42 15 0 24 20 17 21 -7 0 -13 3 -17 6 -10 2 6 14 12 25 12
14 0 18 5 14 15 -4 10 1 15 14 15 11 0 20 4 20 9 0 5 18 11 40 15 37 6 40 8
34 32 -5 20 -3 25 7 22 8 -3 13 -11 12 -17 -2 -6 6 -11 17 -11 11 0 20 5 20
10 0 6 11 10 24 10 14 0 28 4 31 10 3 6 17 10 31 10 17 0 24 5 24 20 0 25 16
26 29 3 9 -17 10 -17 28 0 11 9 25 17 32 17 6 0 16 11 21 25 7 18 14 23 27 18
10 -4 21 -11 24 -16 10 -15 39 0 33 17 -3 7 4 20 14 28 11 7 23 30 27 51 7 37
25 42 25 6 0 -10 4 -19 10 -19 11 0 34 40 23 40 -14 1 41 29 57 30 8 0 23 11
35 25 11 14 30 27 42 28 12 0 20 4 17 8 -7 12 11 18 25 10 8 -6 20 -2 32 10
11 11 28 19 40 19 31 0 61 20 55 35 -7 19 12 29 28 16 9 -8 18 -3 35 19 12 17
30 30 41 30 11 0 20 5 20 10 0 6 -5 10 -11 10 -5 0 -7 5 -4 10 3 6 14 10 25
10 20 0 32 22 24 45 -5 12 4 15 42 16 40 0 45 2 27 9 -29 12 -29 21 0 48 19
18 31 21 68 17 52 -7 85 9 57 26 -23 13 -23 35 -1 48 17 9 16 11 -1 30 -19 21
-19 22 2 41 12 11 28 20 37 20 8 0 15 7 15 15 0 9 7 18 15 21 8 4 15 17 15 30
0 17 6 24 20 24 12 0 26 12 35 30 9 17 20 30 25 30 6 0 10 6 10 14 0 9 8 12
24 9 26 -5 46 15 26 27 -21 13 8 23 59 22 25 -1 53 3 61 8 10 6 11 10 3 10 -7
0 -13 5 -13 10 0 6 6 10 14 10 8 0 16 6 18 12 4 12 31 17 100 21 34 2 55 36
39 63 -10 18 -10 18 -11 1 0 -10 -4 -15 -10 -12 -5 3 -10 17 -10 31 0 18 -5
24 -21 24 -11 0 -18 4 -15 9 4 5 1 11 -5 13 -15 5 29 78 48 78 8 0 13 6 11 12
-6 17 37 38 78 38 43 0 149 -45 266 -112 74 -43 125 -85 225 -185 123 -123
138 -150 138 -250 0 -60 -4 -83 -12 -83 -7 0 -13 -6 -13 -14 0 -7 -9 -25 -21
-40 -11 -14 -18 -26 -14 -26 3 0 -6 -20 -20 -43 -14 -24 -25 -53 -25 -64 0
-11 -10 -28 -22 -36 -19 -13 -20 -16 -5 -16 9 -1 17 -5 17 -11 0 -17 -24 -65
-37 -73 -7 -4 -13 -13 -13 -19 0 -7 -10 -22 -22 -35 -18 -20 -20 -27 -11 -42
10 -15 8 -22 -7 -36 -15 -14 -17 -21 -8 -41 7 -15 8 -28 1 -36 -5 -7 -9 -46
-9 -85 1 -40 -3 -73 -8 -73 -4 0 -6 -9 -3 -20 3 -13 0 -20 -10 -20 -12 0 -13
-8 -8 -39 5 -29 1 -49 -14 -79 -12 -23 -18 -48 -15 -57 4 -11 2 -14 -9 -10
-11 5 -14 -2 -12 -34 1 -23 -1 -41 -5 -41 -9 0 -40 -79 -40 -101 0 -9 -9 -24
-20 -34 -10 -9 -19 -20 -18 -24 1 -3 -4 -19 -10 -34 -7 -16 -12 -33 -12 -38 0
-6 -9 -7 -21 -4 -19 6 -21 4 -16 -14 3 -11 1 -24 -5 -27 -5 -3 -7 -12 -4 -20
3 -7 -3 -19 -13 -26 -10 -7 -21 -23 -25 -35 -4 -13 -12 -23 -17 -23 -5 0 -9
-7 -9 -15 0 -7 -6 -18 -12 -22 -7 -4 -22 -24 -32 -43 -22 -39 -82 -120 -121
-163 -26 -29 -33 -43 -15 -32 6 3 10 3 10 0 0 -7 -53 -61 -57 -57 -2 1 -4 -1
-5 -5 -2 -4 -13 -18 -25 -31 -13 -14 -20 -29 -17 -34 3 -4 0 -7 -7 -6 -6 2
-16 -12 -21 -29 -5 -18 -15 -33 -23 -33 -9 0 -15 -10 -16 -22 0 -13 -3 -17 -6
-10 -8 19 -21 14 -25 -10 -2 -17 -11 -24 -31 -26 -15 -2 -27 -9 -26 -15 3 -26
-2 -35 -22 -40 -18 -5 -20 -11 -15 -33 6 -23 5 -26 -7 -15 -12 9 -16 9 -21 -1
-5 -10 -7 -10 -12 0 -9 19 -24 14 -24 -9 0 -17 -4 -20 -24 -15 -27 7 -42 -17
-30 -48 5 -12 2 -15 -9 -10 -9 3 -13 12 -10 20 3 7 -1 27 -8 44 -15 33 -30 41
-22 11 3 -12 -4 -25 -19 -36 -14 -11 -19 -19 -11 -22 7 -2 9 -11 6 -19 -10
-26 -34 -15 -50 24 -8 20 -21 41 -29 45 -8 4 -14 13 -14 20 0 8 -16 11 -50 9
-49 -4 -50 -3 -50 25 0 15 -5 35 -10 43 -9 13 -11 13 -20 0 -14 -21 -12 -67 3
-73 8 -4 9 -8 1 -14 -6 -4 -16 -21 -22 -38 -6 -16 -11 -24 -11 -17 -1 6 -6 12
-12 12 -7 0 -22 11 -34 24 -32 34 -75 25 -75 -15 0 -22 -5 -29 -20 -29 -11 0
-20 -4 -20 -9 0 -5 -18 -7 -40 -4 -32 5 -40 2 -40 -10 0 -20 -70 -13 -118 10
-28 14 -35 15 -42 3 -6 -10 -12 -11 -22 -3 -20 17 -62 -18 -63 -53 -2 -34 -21
-43 -30 -14 -4 14 -1 28 9 39 18 20 21 41 6 41 -5 0 -10 -4 -10 -9 0 -5 -6
-16 -13 -23 -22 -22 -28 -63 -12 -84 22 -29 19 -64 -5 -64 -11 0 -20 -7 -20
-15 0 -8 -10 -20 -22 -26 l-22 -12 22 -17 c34 -28 28 -41 -15 -34 -29 4 -43 1
-58 -13 -22 -20 -101 -53 -128 -53 -11 0 -17 -8 -17 -25 0 -14 -3 -25 -6 -25
-13 0 -33 35 -34 58 0 12 -5 22 -11 22 -8 0 -9 -13 -5 -40 5 -30 3 -40 -7 -40
-18 0 -57 42 -57 62 0 9 -7 19 -16 22 -22 8 -23 8 -18 -11 3 -12 -4 -22 -22
-30 -23 -11 -31 -10 -54 7 -16 11 -35 17 -44 14 -9 -3 -16 -1 -16 5 0 6 -12
11 -26 11 -14 0 -23 4 -19 10 3 5 12 7 20 3 18 -6 19 1 3 27 -13 20 -6 31 24
42 4 2 5 20 2 40 l-6 37 -52 -6 c-28 -3 -54 -10 -57 -16 -4 -6 -9 -5 -13 1 -3
6 0 13 6 15 8 3 6 6 -4 6 -22 1 -24 21 -3 21 8 0 15 -4 15 -10 0 -13 27 -13
35 1 4 6 -2 13 -13 16 -13 3 -22 15 -24 32 l-4 26 -14 -27 c-16 -34 -40 -37
-40 -5 0 39 -15 50 -30 22 -15 -28 -30 -33 -30 -10 0 18 -36 20 -43 3 -3 -7
-6 11 -6 40 -1 40 2 51 12 46 8 -6 8 -3 -1 9 -11 13 -17 14 -27 4 -9 -8 -10
-16 -3 -24 12 -15 7 -55 -8 -60 -7 -2 -17 9 -22 24 -6 15 -11 21 -11 13 -1
-13 -2 -13 -12 0 -8 11 -9 6 -5 -22 7 -52 -8 -47 -36 11 -14 30 -31 51 -43 54
-13 3 -8 5 12 6 17 0 33 -5 35 -11 3 -9 9 -8 21 4 16 16 16 17 -3 23 -11 3
-29 3 -40 0 -14 -5 -20 -2 -20 9 0 12 10 16 38 17 35 0 35 1 12 10 -14 6 -32
8 -42 6 -9 -3 -22 1 -29 9 -18 22 -59 18 -59 -6 0 -14 -7 -20 -23 -20 -13 0
-33 -9 -44 -19 -13 -12 -29 -18 -42 -14 -17 4 -21 1 -21 -21 0 -32 -25 -44
-52 -27 -11 7 -29 16 -42 21 -20 7 -22 5 -18 -19 4 -26 38 -51 71 -51 12 0 12
-3 3 -12 -10 -10 -17 -10 -32 0 -29 18 -40 15 -40 -10 -1 -17 -6 -13 -21 20
-13 28 -26 42 -39 42 -25 0 -26 27 -2 33 9 3 3 5 -14 6 -17 0 -34 -2 -38 -7
-4 -4 -18 -7 -30 -7 -18 -1 -22 3 -18 18 4 17 1 19 -29 15 -19 -3 -42 -8 -51
-13 -14 -5 -18 -2 -18 14 0 11 -9 25 -20 31 -26 14 -26 30 0 30 11 0 20 4 20
10 0 5 -19 8 -42 6 -26 -2 -42 -7 -41 -14 4 -16 -33 -15 -49 1 -7 8 -20 16
-28 20 -10 4 -8 6 7 6 38 2 15 28 -30 36 -37 6 -39 8 -19 16 30 11 28 20 -4
17 -37 -4 -57 28 -30 48 18 13 17 14 -20 14 -44 0 -57 7 -67 33 -8 21 -57 24
-57 3 0 -17 -27 -29 -35 -16 -13 21 -23 8 -23 -27 0 -21 -5 -39 -11 -41 -6 -2
-11 -11 -12 -20 0 -10 -3 -12 -5 -5 -3 7 -12 9 -20 6 -9 -3 -14 1 -14 12 0 9
4 14 9 11 12 -8 22 50 15 82 -4 21 -3 24 5 12 9 -13 11 -12 12 5 1 11 1 23 0
27 0 4 6 5 13 2 10 -4 16 3 18 18 2 13 15 28 31 36 22 11 27 18 22 35 -5 19
-4 19 5 5 12 -20 62 -18 68 3 3 11 2 11 -6 1 -7 -10 -11 -10 -22 3 -12 14 -11
18 1 26 8 5 9 9 3 9 -6 0 -17 -7 -24 -15 -7 -8 -16 -12 -21 -9 -5 3 -12 -2
-15 -10 -3 -9 -16 -16 -29 -16 -28 0 -32 -5 -89 -112 -25 -47 -62 -115 -81
-150 -19 -35 -45 -83 -57 -107 -26 -50 -174 -209 -184 -198 -4 4 -15 -3 -23
-16 -9 -13 -47 -50 -86 -83 -38 -32 -74 -64 -78 -71 -4 -7 -15 -13 -22 -13 -8
0 -15 -4 -15 -10 0 -5 -7 -10 -15 -10 -9 0 -12 -6 -8 -17 5 -12 2 -15 -10 -10
-8 3 -17 3 -19 -1 -9 -19 -80 -62 -103 -62 -20 0 -26 -4 -22 -14 4 -10 -3 -17
-23 -21 -16 -3 -40 -17 -53 -29 -14 -13 -33 -26 -43 -28 -11 -3 -26 -9 -34
-12 -11 -5 -15 0 -15 19 0 19 4 23 18 19 11 -3 17 0 17 10 0 9 4 16 9 16 5 0
23 12 40 26 17 14 35 23 40 20 5 -3 11 6 14 20 3 18 1 22 -6 15 -6 -6 -21 -11
-33 -11 -13 0 -25 -4 -28 -9 -6 -10 -54 -2 -62 10 -5 9 -54 -10 -54 -22 0 -4
18 -5 40 -2 21 3 47 2 57 -2 14 -5 10 -9 -22 -21 -22 -7 -46 -14 -53 -14 -8 0
-22 -10 -31 -22 l-18 -21 -13 30 c-11 25 -16 28 -27 18 -15 -16 -17 -35 -3
-35 20 0 9 -16 -19 -26 -18 -8 -34 -8 -46 -2 -13 8 -20 5 -32 -12 -14 -20 -21
-21 -64 -16 -51 7 -60 2 -32 -19 14 -11 12 -14 -22 -25 -29 -10 -40 -10 -43
-1 -6 18 -22 13 -22 -8 0 -10 -9 -21 -21 -24 -21 -6 -75 9 -96 26 -9 7 -13 5
-13 -7 0 -9 3 -16 8 -16 4 0 13 -4 21 -9 12 -8 12 -12 -2 -25 -17 -18 -45 -20
-67 -6 -12 8 -12 10 3 15 14 6 10 13 -23 46 -22 22 -40 44 -40 49 0 6 -5 10
-11 10 -5 0 -7 -4 -4 -10 3 -5 0 -10 -8 -10 -8 0 -26 -9 -41 -21 -23 -18 -29
-19 -43 -7 -15 11 -16 10 -11 -9 4 -16 2 -20 -10 -16 -10 4 -13 2 -8 -5 4 -7
1 -12 -8 -12 -9 0 -16 -9 -16 -20 0 -13 -7 -20 -20 -20 -22 0 -28 25 -7 33 9
4 9 6 0 6 -8 1 -10 8 -6 19 6 15 5 15 -8 2 -24 -24 -41 -59 -33 -71 12 -20 10
-71 -2 -76 -13 -5 -64 42 -64 58 0 21 -17 5 -34 -32 -16 -34 -16 -43 -5 -50 9
-6 10 -9 2 -9 -7 0 -16 8 -22 17 -7 14 -13 15 -33 6 -12 -7 -17 -12 -10 -12
21 -1 3 -21 -19 -21 -10 0 -19 -7 -19 -15 0 -15 -17 -20 -54 -17 -12 2 -16 -3
-13 -12 4 -9 -2 -17 -14 -21 -10 -4 -19 -12 -19 -20 0 -7 -4 -15 -8 -17 -12
-4 -99 -113 -129 -161 -14 -22 -29 -45 -34 -51 -46 -56 -199 -267 -207 -286
-6 -12 -56 -100 -92 -160 -35 -59 -80 -178 -73 -196 3 -8 0 -14 -7 -14 -9 0
-11 -10 -6 -30 3 -16 2 -30 -2 -30 -4 0 -8 -19 -9 -43 -2 -23 -4 -62 -6 -87
-3 -25 -5 -57 -6 -72 -1 -17 -8 -29 -21 -33 -16 -5 -18 -9 -8 -25 9 -14 9 -22
-1 -34 -12 -15 6 -16 190 -15 122 1 191 4 171 9 -40 9 -49 17 -35 31 8 8 13 8
17 0 9 -13 46 -15 46 -1 0 5 -8 14 -17 19 -24 14 2 14 28 0 15 -8 18 -14 10
-23 -15 -18 14 -45 31 -28 8 8 8 15 -2 27 -9 11 -9 15 -1 15 7 0 11 10 9 23
-2 16 2 22 17 23 11 0 26 -4 32 -9 7 -5 13 -6 13 -1 0 5 4 2 10 -6 7 -12 10
-12 16 4 5 12 2 23 -9 31 -16 12 -24 45 -11 45 4 0 15 -9 24 -20 10 -12 34
-24 54 -27 31 -5 36 -3 41 20 8 32 30 53 40 37 15 -24 25 -8 19 30 -4 27 -3
40 5 40 6 0 11 -8 11 -17 0 -14 2 -15 9 -4 5 7 13 11 19 7 6 -3 13 -2 16 2 3
5 -6 14 -21 21 -32 15 -19 32 19 24 17 -3 28 -12 28 -22 0 -13 2 -13 9 -2 7
11 10 11 15 0 3 -8 4 4 2 26 -2 22 -2 34 1 28 7 -20 23 -15 23 7 0 11 5 20 10
20 6 0 10 -9 10 -19 0 -11 -4 -23 -10 -26 -5 -3 -10 -11 -10 -17 0 -6 9 -3 20
7 11 10 20 26 20 37 0 10 4 18 9 18 4 0 6 -11 3 -25 -3 -17 1 -27 12 -31 9 -3
16 -15 16 -25 0 -10 7 -19 15 -19 16 0 16 -1 19 53 3 39 -2 45 -22 25 -6 -6
-15 -9 -19 -5 -4 4 -1 13 5 19 7 7 12 22 12 35 0 14 6 23 15 23 8 0 15 -7 15
-16 0 -14 3 -14 15 -4 13 11 18 10 30 -6 14 -18 14 -16 9 14 -6 28 -4 32 15
32 12 0 35 -7 51 -15 27 -14 30 -14 30 0 0 8 5 15 12 15 6 0 20 7 30 17 17 15
18 15 18 0 0 -10 7 -17 15 -17 10 0 15 -10 15 -27 0 -16 5 -35 10 -43 9 -13
11 -13 20 0 13 21 12 27 -5 34 -21 8 -19 26 4 26 11 0 21 8 24 18 3 14 6 13
15 -8 8 -20 7 -28 -5 -37 -8 -6 -12 -16 -9 -22 11 -16 36 -1 37 23 0 20 1 19
12 -4 10 -23 11 -21 17 30 4 45 7 51 14 32 4 -13 5 -44 1 -68 -4 -31 -3 -44 6
-44 14 0 38 30 39 48 0 7 7 20 15 28 12 12 18 12 36 2 17 -10 23 -10 26 0 3 6
13 12 24 12 12 0 21 11 28 32 6 24 9 27 10 12 1 -19 7 -22 51 -21 27 0 50 4
50 9 0 4 -5 8 -12 8 -6 0 -3 7 8 15 11 8 14 15 7 15 -7 0 -13 4 -13 10 0 5 -8
18 -17 28 -33 35 -53 62 -53 72 0 17 19 11 29 -9 11 -20 60 -41 94 -41 20 0
21 0 1 14 -16 12 -17 17 -5 28 11 10 14 10 18 1 3 -8 22 -13 45 -13 35 0 39 2
28 15 -7 8 -22 15 -34 15 -17 1 -16 3 9 14 21 9 34 10 43 3 10 -8 10 -12 1
-17 -13 -9 27 -40 51 -40 12 1 11 4 -4 15 -18 14 -16 15 28 15 29 0 45 4 41
10 -3 5 3 10 14 10 20 0 29 -14 14 -23 -5 -2 -2 -2 5 -1 6 2 12 -1 12 -6 0 -6
9 -10 19 -10 11 0 23 -4 26 -10 10 -17 25 -11 18 7 -5 13 -2 15 11 10 40 -15
64 -18 70 -8 10 16 44 13 78 -6 23 -14 32 -15 35 -5 6 15 43 16 43 0 0 -6 -7
-19 -15 -28 -14 -16 -13 -19 11 -35 22 -14 31 -15 46 -6 26 16 65 14 72 -5 8
-21 8 -21 -13 -27 -11 -3 -29 -20 -40 -38 -12 -19 -29 -34 -38 -34 -10 0 -19
-8 -21 -17 -3 -14 4 -18 31 -18 20 0 38 -6 40 -12 4 -10 7 -10 14 0 7 9 14 8
30 -7 11 -11 24 -17 28 -13 3 4 18 7 33 8 15 1 44 4 65 8 20 3 37 2 37 -3 0
-24 -361 -229 -535 -303 -38 -16 -19 -17 473 -17 l512 -1 0 21 c0 13 5 19 13
16 18 -7 37 26 30 52 -4 16 -11 20 -24 16 -16 -6 -19 -1 -19 34 0 23 5 41 11
41 6 0 9 -7 5 -15 -3 -8 4 -21 17 -30 27 -19 47 -19 47 0 0 9 9 15 21 15 17 0
20 4 15 24 -5 19 0 29 20 45 15 12 32 21 38 21 6 0 16 10 21 23 6 12 17 21 26
19 10 -1 19 7 22 19 4 14 11 20 21 16 11 -4 13 -1 9 10 -5 13 11 32 29 33 4 0
5 -18 2 -40 -4 -34 -2 -39 12 -33 10 4 26 15 37 26 20 20 19 20 -9 15 -28 -4
-29 -2 -29 37 0 33 3 39 12 29 7 -7 10 -20 7 -28 -5 -13 1 -16 30 -16 22 0 36
5 36 13 0 8 4 7 10 -3 7 -10 12 -12 18 -4 9 13 52 25 52 14 0 -10 37 -20 45
-12 3 3 -4 15 -15 27 l-20 22 27 13 c16 7 41 14 56 16 15 1 36 9 46 19 19 17
39 6 26 -15 -3 -6 1 -7 9 -4 9 3 16 10 16 16 0 5 9 6 20 3 11 -4 20 -2 20 4 0
6 -4 11 -10 11 -5 0 -10 5 -10 11 0 19 24 3 32 -22 6 -18 7 -16 3 10 -4 27 -2
32 11 27 9 -3 19 -6 22 -6 4 0 1 -4 -6 -8 -8 -6 -2 -9 18 -9 20 0 26 3 18 9
-12 7 -3 12 16 9 6 -1 20 3 33 10 15 8 26 9 35 2 8 -6 32 -8 58 -4 41 6 43 8
25 19 -18 11 -18 12 8 6 22 -5 26 -3 21 10 -4 12 0 16 15 16 12 0 21 -4 21
-10 0 -5 6 -10 13 -10 6 1 1 10 -13 22 -14 12 -18 19 -8 15 20 -7 89 13 95 29
2 6 15 9 29 6 19 -3 23 -1 18 12 -6 14 13 21 47 18 3 -1 20 12 38 29 18 16 36
27 41 24 5 -3 14 4 20 15 6 11 16 20 23 19 30 -4 47 2 47 16 0 8 7 15 16 15
10 0 14 6 10 15 -3 9 3 19 14 25 25 13 117 107 124 126 3 8 12 14 19 14 8 0
31 14 52 30 21 17 42 30 46 30 5 0 18 9 29 20 11 11 28 20 38 20 10 0 23 5 30
12 8 8 12 8 12 1 0 -19 48 -2 54 20 3 12 8 18 12 14 4 -3 15 5 26 18 11 14 25
25 32 25 7 0 30 16 52 35 21 19 45 35 52 35 6 0 12 6 12 14 0 8 9 18 20 21 11
3 20 13 20 21 0 8 6 14 14 14 8 0 22 10 30 22 9 12 16 18 16 13 0 -13 68 60
102 110 16 22 28 36 28 32 0 -4 14 8 30 26 17 19 30 38 30 41 0 4 14 19 31 33
16 14 45 47 62 73 39 58 177 234 177 226 0 -3 9 3 20 14 11 11 20 25 20 32 0
6 3 9 6 5 3 -3 14 2 25 11 10 9 31 17 46 18 38 2 40 3 23 14 -22 14 5 13 33
-1 18 -9 20 -9 10 2 -7 7 -13 24 -13 37 0 21 4 23 33 20 17 -1 35 -7 39 -13 5
-6 8 -4 8 5 0 15 42 40 69 40 8 0 23 7 33 17 11 9 18 11 18 5 0 -7 12 -12 28
-12 21 0 24 2 12 10 -12 8 -12 10 -1 10 8 0 12 3 8 6 -3 4 -28 6 -54 7 -86 0
-93 -2 -93 -23 0 -11 -4 -20 -9 -20 -16 0 -22 19 -12 37 6 13 5 26 -5 43 -18
33 -17 41 4 33 15 -6 15 -4 -2 15 -17 19 -17 22 -3 22 10 0 17 7 17 15 0 8 10
32 23 54 22 39 29 48 87 126 16 22 41 56 54 75 13 19 31 41 40 49 9 7 16 18
16 23 0 11 60 90 78 101 6 4 12 13 12 19 0 6 9 18 20 28 10 9 24 29 30 44 6
17 14 24 22 20 7 -5 8 -3 3 6 -5 8 -2 17 7 24 24 18 106 162 110 193 3 25 18
50 56 89 7 8 10 14 6 14 -3 0 -1 7 6 15 6 8 9 19 5 25 -4 6 0 22 9 35 9 13 16
31 16 40 0 9 6 18 14 21 8 3 12 12 9 20 -3 8 0 14 6 14 6 0 11 8 11 18 0 23
34 112 46 120 6 4 16 23 23 42 7 19 17 44 22 55 4 11 16 52 25 90 9 39 20 75
24 80 7 9 12 29 37 135 3 14 14 36 23 50 17 26 31 68 55 176 8 34 26 88 40
120 15 34 22 60 16 64 -15 9 -1 50 16 50 16 0 123 102 123 117 0 13 79 113 90
113 24 0 190 166 219 220 8 14 13 50 12 83 -1 77 19 124 61 142 18 7 34 9 36
4 2 -5 14 -9 27 -9 12 0 35 -6 50 -14 15 -8 34 -12 41 -9 22 8 5 23 -27 23
-22 0 -29 5 -29 20 0 14 7 20 23 21 21 0 21 1 2 8 -11 5 -34 6 -52 4 -38 -6
-86 4 -78 17 3 5 1 12 -5 15 -6 4 -10 30 -9 60 2 49 4 54 28 58 15 3 46 -4 76
-18 62 -28 105 -39 105 -26 0 6 7 8 16 4 12 -4 15 0 12 17 -3 25 -46 39 -59
19 -7 -12 -69 -3 -69 11 0 4 -9 10 -20 13 -40 10 -21 27 23 21 23 -4 46 -7 52
-8 5 0 11 9 13 22 2 12 10 22 18 22 8 0 14 5 14 10 0 6 10 10 23 10 12 0 17 4
12 8 -6 4 -11 14 -10 22 0 21 37 100 47 100 4 0 8 7 8 15 0 8 5 15 10 15 6 0
10 7 10 15 0 8 7 15 15 15 22 0 93 39 98 55 9 22 -4 25 -26 4 -11 -10 -23 -15
-26 -11 -3 5 -15 12 -26 17 -18 8 -18 9 7 13 20 2 34 15 50 43 13 23 27 38 35
35 8 -3 13 2 13 13 0 28 26 44 86 52 73 10 184 64 184 90 0 11 -7 22 -15 25
-8 4 -15 11 -15 17 0 7 4 7 12 -1 7 -7 15 -12 19 -12 10 0 18 50 9 55 -11 7
-5 62 9 79 9 11 9 15 -1 19 -7 2 -10 8 -6 12 4 4 14 2 22 -5 13 -10 15 -7 11
24 -6 47 18 69 93 85 31 6 75 16 97 22 22 5 46 11 52 12 26 6 63 51 63 77 0
14 4 30 9 35 6 6 6 26 1 50 -9 37 -30 143 -36 173 -4 20 -25 42 -35 36 -5 -3
-29 -2 -53 1 -36 6 -47 13 -62 40 -16 31 -16 34 -1 50 22 21 23 75 1 75 -12 0
-14 10 -10 55 3 35 1 55 -6 55 -6 0 -8 13 -6 30 4 28 2 30 -25 30 -24 0 -27 3
-18 14 9 11 -3 16 -71 27 -46 7 -92 12 -103 11 -10 0 -24 3 -31 8 -6 6 -40 13
-75 16 -35 4 -75 15 -89 24 -14 9 -36 20 -50 23 -102 22 -240 60 -265 73 -72
36 -142 77 -162 97 -26 23 -111 45 -233 58 -140 16 -283 76 -296 124 -7 27
-101 91 -146 99 -21 4 -38 11 -38 16 0 6 -11 10 -25 10 -13 0 -35 11 -49 25
-14 14 -28 25 -31 25 -27 -1 -37 3 -53 21 -18 18 -21 19 -35 5 -24 -24 -40
-21 -26 5 17 33 -4 44 -27 14z m-484 -1315 c0 -5 -5 -10 -11 -10 -5 0 -7 5 -4
10 3 6 8 10 11 10 2 0 4 -4 4 -10z m-6490 -80 c0 -5 -4 -10 -10 -10 -5 0 -10
5 -10 10 0 6 5 10 10 10 6 0 10 -4 10 -10z m7108 -12 c-7 -19 -38 -22 -38 -4
0 10 9 16 21 16 12 0 19 -5 17 -12z m1017 -10 c2 -7 6 -30 10 -50 5 -35 4 -38
-19 -38 -18 0 -26 -7 -31 -27 -3 -16 -15 -39 -26 -52 -15 -19 -22 -21 -34 -11
-8 6 -19 9 -26 5 -8 -5 -9 1 -4 24 5 24 3 31 -9 31 -9 0 -16 5 -16 10 0 6 7
10 15 10 8 0 15 7 15 15 0 8 8 15 18 15 11 0 24 11 30 25 6 14 16 25 22 25 5
0 10 7 10 15 0 18 39 20 45 3z m-1045 -57 c0 -18 -6 -31 -16 -35 -22 -8 -23
-7 -12 32 11 40 28 42 28 3z m-4510 -40 c0 -4 -11 -6 -25 -3 -14 2 -25 6 -25
8 0 2 11 4 25 4 14 0 25 -4 25 -9z m5035 -61 c-3 -5 -11 -10 -16 -10 -6 0 -7
5 -4 10 3 6 11 10 16 10 6 0 7 -4 4 -10z m342 -122 c5 -7 10 -38 12 -68 1 -30
7 -57 12 -61 15 -9 0 -79 -17 -79 -8 0 -13 -5 -11 -11 1 -6 -25 -19 -58 -29
-33 -11 -68 -29 -77 -41 -10 -12 -18 -16 -18 -10 0 16 -25 14 -39 -3 -8 -10
-9 -16 -1 -21 22 -14 10 -35 -21 -35 -17 0 -28 -4 -24 -10 3 -5 16 -10 28 -10
37 0 -2 -19 -43 -21 -33 -2 -33 -2 -5 -6 17 -2 41 -6 55 -9 23 -6 24 -7 5 -14
-17 -7 -17 -9 -2 -9 12 -1 17 -9 17 -29 0 -22 -6 -30 -32 -40 -18 -6 -43 -9
-55 -6 -34 9 -51 -14 -45 -63 6 -57 -25 -143 -52 -143 -36 0 -86 24 -86 40 0
9 -11 22 -25 28 -31 14 -35 52 -5 52 21 0 29 20 8 20 -7 1 -3 6 10 13 26 15
19 27 -15 27 -32 0 -29 18 5 22 21 2 26 8 24 23 -2 11 -11 26 -20 33 -14 11
-14 13 3 25 17 13 17 14 -6 21 l-24 6 23 13 c12 7 20 16 16 20 -3 3 6 9 21 13
19 5 25 12 22 24 -4 15 0 17 24 10 16 -5 34 -12 40 -16 12 -7 10 10 -5 47 -11
26 36 45 81 31 74 -22 93 -23 93 -8 0 8 -8 19 -17 25 -17 9 -17 10 0 16 26 11
20 23 -8 17 -22 -4 -25 -1 -25 27 0 17 4 31 10 31 5 0 17 16 26 36 14 30 21
34 41 29 31 -7 48 2 33 20 -14 17 -3 38 15 31 7 -2 22 9 34 25 23 31 61 39 78
17z m72 -140 c-1 -13 -5 -36 -9 -53 -7 -26 -8 -22 -9 23 0 29 3 52 9 52 6 0 9
-10 9 -22z m256 -189 c-26 -22 -55 -20 -55 4 0 8 14 13 41 14 l40 2 -26 -20z
m-2198 -78 c4 -17 14 -19 116 -16 249 6 336 10 343 18 13 12 21 8 27 -14 5
-17 11 -20 35 -14 18 3 33 2 37 -4 4 -7 -8 -11 -33 -11 -40 0 -57 -15 -43 -38
5 -9 12 -8 27 3 27 20 32 19 39 -15 4 -17 10 -28 15 -25 20 12 21 -19 1 -46
-11 -15 -21 -36 -21 -47 0 -10 -4 -22 -10 -28 -5 -5 -11 -18 -13 -29 -6 -35
-39 -95 -68 -122 -16 -16 -30 -42 -34 -64 -5 -31 -13 -39 -48 -55 -49 -22 -67
-37 -67 -57 0 -16 -27 -30 -41 -21 -5 3 -15 2 -21 -2 -9 -6 -5 -10 12 -15 l25
-7 -27 -1 c-16 -1 -50 -19 -83 -47 -31 -25 -61 -44 -67 -42 -12 4 -74 -51 -71
-63 2 -5 -15 -14 -37 -20 -27 -8 -40 -18 -41 -31 -3 -33 -4 -36 -25 -55 -11
-10 -27 -33 -35 -51 -10 -24 -19 -32 -32 -28 -32 8 -47 -4 -41 -30 8 -32 -16
-32 -52 -1 -29 25 -28 52 3 83 12 12 13 20 5 39 -7 16 -8 35 -1 57 5 18 9 34
9 36 0 1 -12 -8 -27 -22 -29 -27 -110 -58 -118 -45 -3 4 -31 13 -63 19 -31 6
-67 15 -79 20 -27 11 -53 3 -53 -16 0 -9 -11 -14 -29 -14 -16 0 -31 -6 -35
-15 -3 -8 -10 -15 -16 -15 -6 0 -8 5 -5 10 3 6 -2 10 -11 10 -10 0 -25 7 -35
16 -17 15 -19 15 -34 0 -20 -20 -62 -20 -95 -1 -29 17 -60 19 -60 5 0 -5 5
-10 11 -10 14 0 43 -29 36 -36 -3 -3 -19 4 -35 16 -26 20 -38 22 -86 16 -50
-7 -56 -10 -56 -31 0 -18 4 -22 20 -18 26 7 25 -2 -1 -28 -17 -17 -19 -23 -8
-30 7 -4 11 -11 7 -14 -3 -4 -15 -1 -25 6 -16 9 -26 8 -55 -5 -19 -9 -39 -16
-44 -14 -5 1 -19 -3 -31 -10 -13 -7 -23 -9 -23 -5 0 4 -25 8 -55 7 -30 0 -55
3 -55 8 0 4 -13 8 -30 8 -23 0 -30 5 -30 19 0 11 -5 23 -11 26 -6 5 -4 12 8
21 17 12 17 13 1 14 -10 0 -18 5 -18 10 0 6 -8 10 -17 10 -16 1 -16 2 1 15 13
10 23 12 30 5 17 -17 27 -11 14 10 -16 26 -2 39 17 14 13 -17 14 -17 15 -2 0
24 19 33 27 13 3 -10 0 -21 -8 -25 -7 -5 -10 -12 -7 -16 4 -3 18 6 31 20 26
28 53 27 60 -2 2 -10 3 -4 2 11 -1 25 1 28 19 22 12 -4 36 -9 53 -12 28 -4 34
-2 43 21 5 14 14 26 20 26 5 0 10 9 10 20 0 13 7 20 19 20 23 0 31 28 17 52
-13 22 -1 34 18 19 13 -11 14 -9 7 16 -4 15 -6 47 -3 71 3 36 1 42 -14 42 -16
0 -17 -2 -4 -10 11 -8 7 -9 -15 -4 -40 9 -41 10 -19 36 10 13 15 20 10 16 -21
-18 -75 114 -57 137 5 5 12 29 16 53 5 33 4 42 -8 42 -8 0 -18 -14 -22 -32
l-8 -33 -6 27 c-5 21 -9 25 -21 18 -19 -12 -30 -13 -30 0 0 5 16 12 35 16 25
4 35 11 35 25 0 11 7 19 15 19 8 0 15 -9 15 -20 0 -11 7 -20 15 -20 8 0 15 -9
15 -20 0 -25 25 -26 36 -2 13 28 11 72 -3 72 -7 0 -13 5 -13 11 0 7 11 8 30 4
19 -4 30 -3 30 4 0 6 -6 11 -14 11 -39 0 -37 70 2 80 12 3 31 13 42 23 12 10
25 15 31 11 5 -3 16 0 24 6 8 6 24 9 36 5 18 -6 20 -4 14 14 -7 22 9 29 21 10
4 -7 31 -9 83 -4 69 6 79 5 104 -15 25 -19 28 -20 43 -6 8 9 24 16 35 16 11 0
31 7 44 16 19 13 39 14 100 9 41 -4 75 -11 75 -17 0 -5 7 -5 18 0 29 15 113
21 182 12 50 -6 68 -5 80 6 20 19 31 18 37 -5z m-777 5 c0 -3 -4 -8 -10 -11
-5 -3 -10 -1 -10 4 0 6 5 11 10 11 6 0 10 -2 10 -4z m-160 -14 c0 -5 -6 -17
-14 -27 -13 -18 -14 -18 -9 8 5 24 23 39 23 19z m-60 -42 c0 -5 -4 -10 -9 -10
-6 0 -13 5 -16 10 -3 6 1 10 9 10 9 0 16 -4 16 -10z m-76 -51 c-3 -5 -10 -7
-15 -3 -5 3 -7 10 -3 15 3 5 10 7 15 3 5 -3 7 -10 3 -15z m36 5 c0 -8 -4 -12
-10 -9 -5 3 -10 10 -10 16 0 5 5 9 10 9 6 0 10 -7 10 -16z m-26 -40 c25 -9 19
-24 -9 -24 -24 0 -32 10 -18 23 8 8 8 8 27 1z m46 -4 c0 -5 -4 -10 -10 -10 -5
0 -10 5 -10 10 0 6 5 10 10 10 6 0 10 -4 10 -10z m2636 -80 c8 0 14 5 14 10 0
6 7 10 15 10 11 0 15 -11 15 -40 0 -22 -5 -40 -11 -40 -5 0 -9 8 -8 18 3 33
-1 37 -14 13 -18 -36 -33 -36 -46 0 -14 42 -14 72 2 88 10 10 13 5 15 -23 2
-23 8 -36 18 -36z m-2786 16 c-26 -13 -44 -11 -35 5 4 5 18 9 33 9 l27 0 -25
-14z m-150 -61 c-7 -8 -17 -15 -23 -15 -6 0 -2 7 9 15 25 19 30 19 14 0z m97
9 c-3 -3 -12 -4 -19 -1 -8 3 -5 6 6 6 11 1 17 -2 13 -5z m2583 -9 c0 -8 -4
-15 -10 -15 -5 0 -7 7 -4 15 4 8 8 15 10 15 2 0 4 -7 4 -15z m-125 -5 c3 -5
-3 -10 -14 -10 -12 0 -21 5 -21 10 0 6 6 10 14 10 8 0 18 -4 21 -10z m-2662
-30 c3 -11 1 -23 -4 -26 -5 -3 -9 -1 -9 5 0 5 -3 16 -6 25 -3 9 -2 16 4 16 5
0 12 -9 15 -20z m2743 -5 c52 -26 98 -88 84 -115 -5 -10 -23 -21 -39 -25 -16
-3 -35 -12 -41 -20 -8 -10 -26 -12 -66 -8 -50 5 -54 4 -54 -16 0 -11 6 -21 13
-22 7 0 6 -3 -3 -6 -8 -3 -22 -12 -32 -20 -13 -12 -20 -12 -37 -1 -12 7 -21
19 -21 27 0 8 -3 11 -6 8 -10 -10 -64 32 -64 49 0 8 -10 18 -22 23 -31 12 -62
47 -49 55 6 4 8 13 5 20 -3 7 2 16 10 19 19 7 46 -1 46 -14 0 -5 13 -9 29 -9
16 0 34 -7 41 -15 14 -16 50 -21 50 -6 0 5 -6 12 -12 14 -8 3 -6 6 5 6 13 1
17 10 17 39 l0 38 53 0 c30 -1 69 -9 93 -21z m-2646 6 c0 -14 -50 -43 -66 -37
-17 7 -18 33 -1 39 21 9 67 7 67 -2z m-200 -47 c0 -11 -48 -30 -55 -22 -1 2
-6 14 -10 28 -8 25 -7 25 13 7 20 -18 20 -18 27 4 6 17 9 19 16 8 5 -8 9 -19
9 -25z m410 26 c0 -5 -4 -10 -10 -10 -5 0 -10 5 -10 10 0 6 5 10 10 10 6 0 10
-4 10 -10z m2064 -32 c-3 -4 0 -8 5 -8 6 0 11 -7 11 -15 0 -12 -4 -13 -19 -6
-22 12 -34 48 -17 54 13 5 27 -13 20 -25z m-2544 -3 c0 -8 -9 -23 -20 -32 -24
-21 -26 -43 -5 -43 8 0 15 7 15 16 0 13 3 14 14 5 7 -6 21 -9 29 -5 9 3 24 1
34 -5 14 -8 9 -10 -29 -11 -49 0 -66 -17 -28 -27 29 -8 25 -20 -10 -28 -16 -4
-30 -13 -30 -21 0 -28 -29 -13 -41 21 -13 35 -23 43 -34 26 -3 -6 2 -14 11
-19 20 -11 10 -72 -11 -72 -10 0 -14 -11 -13 -32 2 -67 -20 -121 -36 -85 -3 6
-3 0 0 -15 4 -20 1 -29 -15 -38 -12 -6 -25 -9 -30 -6 -5 3 -16 -3 -26 -14 -11
-13 -14 -20 -6 -20 7 0 9 -5 5 -12 -4 -6 1 -17 12 -25 18 -13 18 -14 -4 -19
-12 -4 -22 -14 -22 -24 0 -10 -6 -20 -12 -23 -8 -2 -9 -8 -4 -13 5 -5 11 -4
13 4 3 6 9 12 14 12 13 0 11 -28 -2 -32 -8 -3 -12 -39 -13 -106 l-1 -102 -27
0 c-16 0 -28 -5 -28 -11 0 -7 11 -9 30 -5 22 4 30 2 30 -9 0 -9 -9 -15 -24
-15 -13 0 -29 -6 -35 -14 -10 -12 -8 -16 10 -21 13 -4 24 -2 29 5 8 13 86 5
95 -10 6 -10 -23 -22 -35 -15 -5 3 -41 1 -80 -5 -53 -8 -76 -7 -86 1 -8 6 -24
9 -36 6 -12 -4 -29 -1 -37 6 -11 9 -15 9 -18 0 -2 -6 -20 -23 -39 -38 l-35
-27 -20 27 c-15 18 -27 24 -40 20 -11 -4 -26 -1 -34 5 -9 8 -29 9 -55 5 -37
-6 -40 -5 -40 17 0 13 5 29 12 36 13 13 8 15 -16 6 -9 -3 -16 -17 -16 -30 0
-31 -16 -31 -24 0 -3 13 -14 27 -23 31 -30 13 -103 22 -103 13 0 -4 -7 -8 -15
-8 -8 0 -15 4 -15 9 0 5 -15 14 -32 20 -23 8 -29 14 -20 20 9 5 5 11 -13 19
-20 9 -25 9 -25 -2 0 -7 -7 -19 -15 -26 -13 -11 -15 -8 -15 14 0 14 6 26 13
26 6 1 0 11 -14 23 -14 12 -29 30 -32 40 -4 9 -16 17 -27 17 -11 0 -20 7 -20
15 0 11 -11 15 -39 15 -43 0 -55 15 -45 56 l6 24 30 -25 c44 -37 64 -32 33 9
-19 25 -19 36 0 36 8 0 15 4 15 9 0 5 8 12 19 16 10 3 21 18 24 34 5 24 10 28
39 27 25 -1 35 4 43 22 11 24 62 44 95 35 11 -3 20 -1 20 5 0 11 50 23 95 22
17 0 55 9 85 20 30 11 63 20 72 20 10 0 18 5 18 11 0 5 5 7 11 4 5 -4 19 1 29
10 13 12 31 16 60 13 28 -2 40 0 40 9 0 17 20 17 21 1 0 -7 5 -3 11 10 7 13
20 22 35 22 16 0 23 6 23 20 0 17 7 20 40 20 28 0 43 5 47 16 3 9 15 14 32 12
20 -2 26 1 25 15 -1 12 7 20 27 24 16 3 26 9 24 14 -3 4 0 11 6 15 6 3 15 1
19 -6 5 -9 9 -9 14 -1 4 6 4 16 0 23 -5 7 -3 8 5 4 7 -5 21 0 31 9 11 10 26
15 36 11 11 -4 15 -2 11 8 -4 9 1 17 11 19 35 9 52 7 52 -8z m176 2 c7 -4 14
-18 17 -32 4 -24 2 -26 -27 -23 -25 2 -31 7 -30 26 0 14 -5 22 -15 22 -12 0
-13 2 -3 8 15 10 42 9 58 -1z m304 -17 c0 -5 -6 -10 -14 -10 -8 0 -18 5 -21
10 -3 6 3 10 14 10 12 0 21 -4 21 -10z m2590 -21 c0 -5 -7 -9 -15 -9 -8 0 -15
7 -15 15 0 9 6 12 15 9 8 -4 15 -10 15 -15z m-3020 1 c0 -5 -6 -10 -14 -10 -8
0 -18 5 -21 10 -3 6 3 10 14 10 12 0 21 -4 21 -10z m2478 -47 c11 -11 9 -13
-11 -13 -14 0 -34 -3 -44 -6 -15 -5 -16 -4 -3 5 13 10 13 12 0 21 -13 9 -13
11 0 19 14 10 25 4 58 -26z m532 -12 c0 -6 -4 -13 -10 -16 -5 -3 -10 1 -10 9
0 9 5 16 10 16 6 0 10 -4 10 -9z m-420 -10 c0 -5 -10 -12 -22 -16 -13 -5 -32
-11 -43 -15 -26 -9 -64 8 -44 21 8 4 24 6 35 3 12 -3 25 -1 28 5 8 13 46 15
46 2z m-2680 -93 c0 -5 -9 -8 -20 -8 -13 0 -20 7 -20 20 0 18 2 19 20 8 11 -7
20 -16 20 -20z m-1080 -174 c0 -8 -4 -12 -10 -9 -5 3 -10 10 -10 16 0 5 5 9
10 9 6 0 10 -7 10 -16z m1588 -45 c-2 -6 -8 -10 -13 -10 -5 0 -11 4 -13 10 -2
6 4 11 13 11 9 0 15 -5 13 -11z m1439 -65 c-3 -3 -12 -4 -19 -1 -8 3 -5 6 6 6
11 1 17 -2 13 -5z m-3252 -73 c3 -5 1 -12 -5 -16 -5 -3 -10 1 -10 9 0 18 6 21
15 7z m68 -22 c-4 -15 -9 -17 -17 -9 -8 8 -7 13 4 20 8 5 16 10 17 10 0 0 -1
-9 -4 -21z m1517 11 c0 -5 -4 -10 -10 -10 -5 0 -10 5 -10 10 0 6 5 10 10 10 6
0 10 -4 10 -10z m-1360 -70 c0 -5 -7 -10 -16 -10 -8 0 -12 5 -9 10 3 6 10 10
16 10 5 0 9 -4 9 -10z m2490 -33 c0 -20 0 -20 -14 -2 -8 11 -12 23 -9 28 8 13
23 -3 23 -26z m-90 -51 c0 -2 -9 -6 -20 -9 -11 -3 -20 -1 -20 4 0 5 9 9 20 9
11 0 20 -2 20 -4z m-80 -36 c0 -5 -7 -10 -15 -10 -8 0 -15 5 -15 10 0 6 7 10
15 10 8 0 15 -4 15 -10z m-1360 -16 c0 -8 -5 -12 -10 -9 -6 4 -8 11 -5 16 9
14 15 11 15 -7z m95 6 c3 -5 1 -10 -4 -10 -6 0 -11 5 -11 10 0 6 2 10 4 10 3
0 8 -4 11 -10z m1324 -4 c15 -18 -2 -30 -32 -22 -34 8 -52 -7 -38 -32 23 -43
6 -101 -22 -73 -21 21 -40 13 -33 -14 6 -22 3 -25 -19 -25 -26 0 -45 -15 -80
-63 -11 -15 -27 -27 -36 -27 -9 0 -20 -10 -24 -22 -4 -14 -8 -18 -12 -10 -8
20 -23 14 -24 -10 0 -13 -3 -17 -6 -10 -6 16 -18 15 -37 -4 -9 -8 -16 -11 -16
-5 0 6 -9 11 -20 11 -12 0 -20 -7 -20 -16 0 -11 -5 -14 -17 -9 -10 4 -25 8
-33 8 -8 0 -25 8 -38 18 -13 10 -30 15 -38 12 -8 -3 -14 1 -14 11 0 11 -9 15
-30 13 -16 -1 -30 -5 -30 -9 0 -5 -6 -8 -14 -8 -23 0 -12 77 14 105 24 25 64
33 75 15 10 -17 85 -12 85 5 0 11 11 15 40 15 22 0 40 5 40 11 0 5 10 9 23 7
16 -2 21 2 19 14 -1 9 6 19 17 23 10 3 22 12 25 20 3 8 12 15 21 15 8 0 14 5
13 12 -4 15 67 31 117 25 28 -3 49 1 70 13 37 23 59 24 74 6z m461 -1 c0 -8
-4 -15 -10 -15 -5 0 -10 7 -10 15 0 8 5 15 10 15 6 0 10 -7 10 -15z m-470 -39
c0 -3 -4 -8 -10 -11 -5 -3 -10 -1 -10 4 0 6 5 11 10 11 6 0 10 -2 10 -4z
m-1268 -48 c-20 -20 -14 -26 29 -26 48 -1 58 -7 40 -25 -11 -9 -14 -9 -18 1
-7 19 -41 14 -53 -8 -7 -13 -19 -19 -41 -17 -29 2 -29 3 -10 16 25 16 27 31 6
31 -8 0 -15 -5 -15 -11 0 -5 -5 -7 -10 -4 -16 10 37 55 63 55 16 0 18 -3 9
-12z m-302 -33 c-29 -17 -50 -19 -50 -6 0 8 20 14 65 19 6 1 -1 -5 -15 -13z
m-320 -5 c0 -5 -2 -10 -4 -10 -3 0 -8 5 -11 10 -3 6 -1 10 4 10 6 0 11 -4 11
-10z m1877 4 c-3 -3 -12 -4 -19 -1 -8 3 -5 6 6 6 11 1 17 -2 13 -5z m-1462
-64 c3 -5 -1 -10 -10 -10 -9 0 -13 5 -10 10 3 6 8 10 10 10 2 0 7 -4 10 -10z
m225 0 c0 -5 -4 -10 -10 -10 -5 0 -10 5 -10 10 0 6 5 10 10 10 6 0 10 -4 10
-10z m1100 -230 c0 -5 -7 -10 -16 -10 -8 0 -12 5 -9 10 3 6 10 10 16 10 5 0 9
-4 9 -10z m-220 -155 c0 -8 -7 -15 -15 -15 -16 0 -20 12 -8 23 11 12 23 8 23
-8z m-124 -22 c-10 -10 -19 5 -10 18 6 11 8 11 12 0 2 -7 1 -15 -2 -18z
m-1676 -1023 c0 -5 -4 -10 -10 -10 -5 0 -10 5 -10 10 0 6 5 10 10 10 6 0 10
-4 10 -10z m-142 -185 c-3 -3 -9 2 -12 12 -6 14 -5 15 5 6 7 -7 10 -15 7 -18z
m202 -61 c0 -8 -6 -14 -14 -14 -9 0 -12 7 -9 20 6 22 23 18 23 -6z m2895 -44
c3 -5 1 -10 -4 -10 -6 0 -11 5 -11 10 0 6 2 10 4 10 3 0 8 -4 11 -10z m-2835
-4 c0 -2 -7 -9 -15 -16 -12 -10 -15 -10 -15 4 0 9 7 16 15 16 8 0 15 -2 15 -4z
m2737 -98 c-3 -8 -6 -5 -6 6 -1 11 2 17 5 13 3 -3 4 -12 1 -19z m-319 -18 c10
0 22 -11 29 -25 6 -14 7 -25 2 -25 -5 0 -9 5 -9 11 0 5 -13 15 -30 20 -30 11
-36 20 -23 33 4 4 9 2 11 -3 2 -6 11 -11 20 -11z m-1758 -50 c0 -5 -4 -10 -10
-10 -5 0 -10 5 -10 10 0 6 5 10 10 10 6 0 10 -4 10 -10z m1490 -20 c-8 -5 -24
-10 -35 -10 -11 0 -27 5 -35 10 -11 7 -1 10 35 10 36 0 46 -3 35 -10z m-1425
-46 c-15 -16 -18 -16 -33 -1 -15 16 -15 18 3 31 16 11 21 11 33 0 11 -12 11
-16 -3 -30z m1200 29 c18 -14 18 -15 2 -9 -10 3 -32 6 -48 6 -18 0 -28 4 -24
10 9 15 47 11 70 -7z m875 7 c0 -5 -7 -10 -15 -10 -8 0 -15 5 -15 10 0 6 7 10
15 10 8 0 15 -4 15 -10z m-900 -35 c10 -12 10 -18 0 -30 -7 -8 -16 -15 -20
-15 -12 0 -20 28 -14 45 4 8 10 15 14 15 4 0 13 -7 20 -15z m-1100 -11 c0 -8
-4 -12 -10 -9 -5 3 -10 10 -10 16 0 5 5 9 10 9 6 0 10 -7 10 -16z m1040 -84
c0 -5 -4 -10 -9 -10 -6 0 -13 5 -16 10 -3 6 1 10 9 10 9 0 16 -4 16 -10z
m-625 -30 c3 -5 1 -10 -4 -10 -6 0 -11 5 -11 10 0 6 2 10 4 10 3 0 8 -4 11
-10z m1302 -85 c-5 -13 -46 -15 -53 -3 -3 5 2 18 12 28 17 16 20 17 32 2 7 -9
11 -21 9 -27z m-77 -104 c0 -12 -20 -25 -27 -18 -7 7 6 27 18 27 5 0 9 -4 9
-9z m-1153 -23 c-3 -8 -6 -5 -6 6 -1 11 2 17 5 13 3 -3 4 -12 1 -19z m91 0
c-5 -15 -23 -11 -26 6 -2 11 2 14 13 10 9 -4 14 -11 13 -16z m1012 -42 c0 -2
-7 -9 -15 -16 -12 -10 -15 -10 -15 4 0 9 7 16 15 16 8 0 15 -2 15 -4z m-982
-93 c-4 -22 -22 -20 -26 1 -2 10 3 16 13 16 10 0 15 -7 13 -17z m-48 -9 c0 -8
-5 -12 -10 -9 -6 4 -8 11 -5 16 9 14 15 11 15 -7z m-3205 -62 c-3 -3 -11 0
-18 7 -9 10 -8 11 6 5 10 -3 15 -9 12 -12z m72 -37 c24 -22 25 -25 9 -31 -14
-5 -15 -9 -5 -15 22 -13 3 -21 -23 -9 -19 9 -24 19 -24 46 0 40 8 42 43 9z
m-52 -55 c3 -5 1 -10 -4 -10 -6 0 -11 5 -11 10 0 6 2 10 4 10 3 0 8 -4 11 -10z
m-27 -17 c-4 -21 -27 -27 -48 -13 -13 9 -13 11 0 20 25 16 52 12 48 -7z m67
-3 c-3 -5 -10 -10 -16 -10 -5 0 -9 5 -9 10 0 6 7 10 16 10 8 0 12 -4 9 -10z
m-180 -39 c8 -14 -13 -24 -33 -16 -14 5 -14 7 -2 15 19 12 27 12 35 1z m975
-766 c0 -8 -4 -15 -10 -15 -5 0 -10 7 -10 15 0 8 5 15 10 15 6 0 10 -7 10 -15z
m-477 -50 c15 -13 27 -29 27 -35 0 -9 -5 -12 -31 -14 -6 -1 -17 16 -24 37 -15
43 -10 45 28 12z m-99 -35 c8 -17 10 -32 5 -36 -5 -3 -9 2 -9 11 0 8 -7 18
-15 21 -8 4 -15 15 -15 26 0 25 15 15 34 -22z m176 -41 c0 -12 -27 -12 -35 0
-3 5 -1 13 5 16 6 4 7 12 3 19 -4 7 0 3 10 -7 9 -11 17 -23 17 -28z m-310 -9
c12 0 18 -4 15 -10 -3 -5 -20 -7 -38 -3 -39 7 -34 3 -42 36 l-8 29 26 -26 c14
-14 36 -26 47 -26z m42 19 c5 -3 4 -23 -1 -45 l-9 -39 -1 35 c-1 19 -4 46 -6
60 -3 14 -2 18 1 10 4 -8 11 -18 16 -21z m1088 22 c0 -12 -20 -25 -27 -18 -7
7 6 27 18 27 5 0 9 -4 9 -9z m-1270 -51 c0 -5 -2 -10 -4 -10 -3 0 -8 5 -11 10
-3 6 -1 10 4 10 6 0 11 -4 11 -10z m360 -10 c0 -19 -11 -26 -23 -14 -8 8 3 34
14 34 5 0 9 -9 9 -20z m-253 -32 c-3 -8 -6 -5 -6 6 -1 11 2 17 5 13 3 -3 4
-12 1 -19z m2213 8 c0 -8 -7 -16 -15 -20 -13 -4 -14 -2 -5 14 13 23 20 26 20
6z m-1120 -6 c0 -5 -5 -10 -11 -10 -5 0 -7 5 -4 10 3 6 8 10 11 10 2 0 4 -4 4
-10z m1040 0 c0 -5 -2 -10 -4 -10 -3 0 -8 5 -11 10 -3 6 -1 10 4 10 6 0 11 -4
11 -10z m-1986 -15 c-4 -8 -7 -15 -9 -15 -2 0 -5 7 -9 15 -3 9 0 15 9 15 9 0
12 -6 9 -15z m2016 5 c0 -5 -4 -10 -10 -10 -5 0 -10 5 -10 10 0 6 5 10 10 10
6 0 10 -4 10 -10z m-40 -20 c0 -5 -7 -10 -15 -10 -8 0 -15 5 -15 10 0 6 7 10
15 10 8 0 15 -4 15 -10z m-230 -120 c0 -5 -7 -10 -16 -10 -8 0 -12 5 -9 10 3
6 10 10 16 10 5 0 9 -4 9 -10z m-2503 -26 c-3 -3 -12 -4 -19 -1 -8 3 -5 6 6 6
11 1 17 -2 13 -5z m-37 -34 c0 -5 -4 -10 -10 -10 -5 0 -10 5 -10 10 0 6 5 10
10 10 6 0 10 -4 10 -10z m60 0 c0 -5 -5 -10 -11 -10 -5 0 -7 5 -4 10 3 6 8 10
11 10 2 0 4 -4 4 -10z m-40 -50 c0 -5 -7 -10 -16 -10 -8 0 -12 5 -9 10 3 6 10
10 16 10 5 0 9 -4 9 -10z m-265 -60 c3 -5 1 -10 -4 -10 -6 0 -11 5 -11 10 0 6
2 10 4 10 3 0 8 -4 11 -10z m-74 -50 c10 0 19 -4 19 -10 0 -5 -9 -10 -20 -10
-11 0 -20 2 -20 4 0 2 -2 10 -3 18 -2 7 -2 10 0 6 3 -5 13 -8 24 -8z"/>
<path d="M8160 5624 c0 -8 5 -12 10 -9 6 3 10 10 10 16 0 5 -4 9 -10 9 -5 0
-10 -7 -10 -16z"/>
<path d="M8215 5610 c-3 -5 3 -10 15 -10 12 0 18 5 15 10 -3 6 -10 10 -15 10
-5 0 -12 -4 -15 -10z"/>
<path d="M8000 5250 c0 -5 11 -10 25 -10 14 0 25 5 25 10 0 6 -11 10 -25 10
-14 0 -25 -4 -25 -10z"/>
<path d="M7920 5239 c0 -5 5 -7 10 -4 6 3 10 8 10 11 0 2 -4 4 -10 4 -5 0 -10
-5 -10 -11z"/>
<path d="M7853 5105 c-24 -27 -15 -40 27 -40 43 0 52 14 26 41 -18 18 -37 17
-53 -1z"/>
<path d="M5440 5199 c0 -5 16 -9 35 -9 19 0 35 4 35 8 0 4 -16 8 -35 9 -19 1
-35 -3 -35 -8z"/>
<path d="M6120 5100 c0 -5 5 -10 11 -10 5 0 7 5 4 10 -3 6 -8 10 -11 10 -2 0
-4 -4 -4 -10z"/>
<path d="M6067 5089 c-10 -6 -31 -8 -46 -4 -34 7 -36 5 -45 -57 -6 -42 -5 -49
18 -69 15 -13 26 -30 26 -40 0 -10 9 -21 20 -24 11 -3 20 -12 20 -18 0 -7 19
-23 43 -36 27 -15 49 -38 63 -65 17 -32 26 -40 44 -38 33 4 37 10 15 26 -18
13 -17 15 15 35 19 11 41 21 48 21 7 0 12 8 10 18 -1 9 8 32 21 50 17 25 21
40 16 60 -4 15 -10 21 -12 14 -6 -17 -32 15 -33 41 0 13 -7 17 -27 16 -16 -1
-44 2 -63 6 l-35 9 30 7 30 7 -32 1 c-23 1 -33 -4 -33 -14 0 -17 -25 -20 -35
-5 -3 6 2 10 12 11 10 0 3 5 -15 10 -27 8 -32 14 -27 29 7 22 -1 25 -28 9z"/>
<path d="M5351 4924 c0 -11 3 -14 6 -6 3 7 2 16 -1 19 -3 4 -6 -2 -5 -13z"/>
<path d="M5921 4544 c0 -11 3 -14 6 -6 3 7 2 16 -1 19 -3 4 -6 -2 -5 -13z"/>
<path d="M5332 4538 c6 -18 28 -21 28 -4 0 9 -7 16 -16 16 -9 0 -14 -5 -12
-12z"/>
<path d="M7680 4869 c0 -5 5 -7 10 -4 6 3 10 8 10 11 0 2 -4 4 -10 4 -5 0 -10
-5 -10 -11z"/>
<path d="M4690 4911 c0 -5 7 -11 15 -15 9 -3 15 0 15 9 0 8 -7 15 -15 15 -8 0
-15 -4 -15 -9z"/>
<path d="M4580 4810 c0 -6 7 -10 15 -10 8 0 15 2 15 4 0 2 -7 6 -15 10 -8 3
-15 1 -15 -4z"/>
<path d="M4208 4683 c7 -3 16 -2 19 1 4 3 -2 6 -13 5 -11 0 -14 -3 -6 -6z"/>
<path d="M3795 4360 c4 -6 11 -8 16 -5 14 9 11 15 -7 15 -8 0 -12 -5 -9 -10z"/>
<path d="M4455 4170 c-3 -5 1 -10 9 -10 9 0 16 5 16 10 0 6 -4 10 -9 10 -6 0
-13 -4 -16 -10z"/>
<path d="M4305 4141 c-3 -5 -1 -12 5 -16 5 -3 10 1 10 9 0 18 -6 21 -15 7z"/>
<path d="M6495 1850 c-3 -5 -1 -10 4 -10 6 0 11 5 11 10 0 6 -2 10 -4 10 -3 0
-8 -4 -11 -10z"/>
<path d="M2400 7124 c-8 -3 -24 -18 -35 -34 -20 -30 -30 -29 -38 5 -4 18 -5
18 -6 -2 0 -13 -6 -23 -12 -23 -6 0 -9 7 -6 15 8 19 -11 31 -26 16 -6 -6 -23
-11 -37 -11 -14 0 -38 -6 -53 -12 -23 -11 -27 -19 -27 -55 0 -30 4 -43 14 -43
13 0 31 -28 23 -36 -9 -9 -65 28 -99 66 -40 43 -57 50 -54 23 0 -10 -9 -22
-21 -27 -29 -13 -38 -46 -13 -46 11 0 23 8 29 17 8 15 11 15 26 3 15 -13 15
-15 -7 -23 -33 -14 -87 -18 -93 -6 -9 14 -25 11 -25 -6 0 -9 -9 -15 -21 -15
-15 0 -19 -5 -15 -16 4 -10 0 -15 -12 -13 -25 3 -52 -11 -52 -28 0 -11 -14
-13 -62 -11 -35 1 -64 -2 -65 -7 -2 -6 1 -10 6 -10 5 0 12 -3 16 -7 9 -9 -55
-17 -188 -23 -106 -5 -187 -22 -187 -39 0 -4 7 -5 16 -2 19 7 54 -10 54 -28 0
-19 80 -68 119 -71 34 -3 55 -21 44 -38 -4 -6 12 -8 40 -5 37 4 46 2 50 -12 5
-18 69 -35 75 -19 2 5 14 2 27 -7 14 -9 33 -12 48 -9 18 5 31 1 46 -14 25 -25
28 -26 34 -3 4 16 5 16 6 -1 1 -11 5 -15 13 -11 15 10 78 12 78 3 0 -4 10 -10
23 -14 31 -10 107 -12 107 -2 0 16 30 6 30 -10 1 -17 1 -17 11 0 5 9 7 21 4
27 -9 15 36 2 49 -14 10 -14 37 -15 114 -7 6 0 12 8 12 16 0 8 5 15 10 15 6 0
10 -7 10 -15 0 -8 4 -15 9 -15 5 0 12 -8 14 -17 4 -17 5 -17 6 0 0 9 4 17 7
17 4 0 13 -8 20 -17 12 -16 13 -16 14 -1 0 9 -6 18 -12 21 -9 3 -10 8 -3 15 6
7 23 8 46 3 21 -5 43 -4 53 1 9 5 21 6 26 3 6 -3 10 -1 10 5 0 6 4 9 10 5 5
-3 7 -12 3 -20 -7 -19 4 -19 24 0 8 9 12 23 8 33 -5 14 -4 15 6 5 18 -17 32
-16 26 1 -4 10 -1 13 9 9 8 -3 13 -11 10 -18 -3 -8 6 -12 25 -11 16 1 30 6 31
11 0 6 2 16 2 22 2 17 19 18 26 1 7 -19 40 -19 40 1 0 14 2 14 10 1 7 -12 13
-13 28 -4 23 15 75 9 105 -10 22 -15 60 -6 44 11 -5 4 -12 1 -17 -7 -6 -8 -10
-10 -10 -4 0 5 6 18 13 27 10 13 19 15 49 8 28 -7 40 -5 49 5 6 8 17 14 23 14
7 0 6 -3 -2 -9 -10 -6 -10 -10 3 -21 13 -10 15 -9 15 8 0 11 7 26 16 33 15 12
16 11 11 -6 -5 -15 0 -24 16 -34 22 -14 22 -14 3 8 -17 19 -17 21 -2 21 13 0
15 6 10 25 -5 20 -3 24 10 19 9 -3 16 -12 16 -20 0 -8 5 -14 11 -14 7 0 9 10
4 28 l-7 27 24 -27 c35 -41 48 -36 37 13 -6 23 -7 44 -4 47 7 8 14 -1 18 -24
1 -10 8 -28 15 -39 12 -19 13 -19 7 3 -4 13 -2 22 5 22 7 0 9 8 5 20 -5 14 -2
20 10 20 9 0 15 -6 14 -12 -3 -29 2 -48 14 -48 12 0 17 47 5 65 -3 6 1 17 10
25 14 13 15 13 10 -1 -3 -8 0 -23 8 -33 7 -11 11 -23 8 -28 -3 -5 -1 -14 4
-21 6 -7 12 -25 15 -42 2 -16 4 -3 4 31 0 33 5 69 10 79 9 15 13 8 23 -41 17
-80 18 -84 19 -46 1 18 5 31 10 27 5 -3 12 5 14 17 l4 23 8 -22 c4 -11 15 -23
26 -26 20 -5 27 9 8 15 -6 2 -15 25 -19 51 -6 41 -4 49 12 58 14 7 18 6 18 -6
0 -8 5 -15 10 -15 9 0 14 13 12 31 -1 4 8 5 18 2 11 -3 20 -12 20 -19 0 -12 5
-11 25 2 30 20 30 19 43 -26 9 -30 10 -31 11 -10 1 14 8 43 15 65 12 34 14 36
18 16 1 -14 9 -26 16 -29 8 -2 10 2 5 15 -6 16 -5 16 10 5 9 -8 21 -11 27 -7
6 3 10 -3 10 -17 0 -13 5 -30 11 -38 8 -12 9 -10 4 7 -3 12 0 33 7 45 7 13 14
28 14 33 1 6 2 15 3 20 1 6 8 -6 15 -25 13 -39 10 -82 -5 -58 -5 7 -9 8 -9 3
0 -6 9 -18 19 -27 19 -16 20 -15 16 39 -4 52 -4 55 10 37 14 -18 15 -17 10 14
-5 30 9 46 18 20 3 -10 7 -10 19 -1 8 7 18 10 21 6 4 -3 7 2 8 13 0 18 1 18 9
-1 5 -11 9 -35 9 -53 1 -21 5 -31 12 -27 6 4 7 19 4 36 -7 31 10 42 18 12 3
-10 5 -3 6 15 1 39 21 34 22 -6 0 -15 4 -36 9 -47 7 -14 8 -4 6 33 -3 49 -2
52 17 46 15 -5 19 -3 14 10 -3 8 -2 18 3 21 6 4 10 -5 10 -19 0 -14 5 -26 10
-26 6 0 10 12 10 28 l1 27 13 -25 14 -25 4 30 4 30 12 -27 c6 -16 14 -28 17
-28 4 0 3 4 0 10 -3 5 -2 18 4 27 9 16 11 16 21 -7 9 -22 10 -23 6 -3 -4 25 8
40 19 23 5 -8 11 -8 20 0 9 8 14 5 20 -12 l7 -23 8 25 c9 27 13 19 10 -19 -1
-14 2 -21 9 -17 6 4 11 16 11 28 0 18 2 19 17 7 9 -8 14 -9 10 -3 -4 7 1 18
10 25 15 12 16 11 11 -8 -6 -23 5 -32 17 -13 3 5 12 7 20 3 10 -3 15 2 15 17
0 11 4 19 9 16 5 -3 7 -15 4 -26 -7 -28 14 -25 23 3 7 21 7 21 15 2 7 -19 8
-19 8 3 1 26 16 29 30 5 6 -10 11 -13 11 -7 0 5 6 19 14 30 14 18 15 18 26
-11 l12 -30 13 25 c8 14 14 21 15 16 0 -5 7 -3 15 4 10 9 15 9 15 1 0 -6 5
-11 10 -11 6 0 10 9 10 20 0 11 5 20 10 20 6 0 10 -5 10 -11 0 -8 5 -8 15 1
13 10 15 9 15 -9 0 -11 5 -21 10 -21 6 0 10 7 10 16 0 8 4 13 9 9 5 -3 12 -1
16 5 10 16 25 12 19 -5 -4 -8 -1 -15 5 -15 7 0 14 7 18 16 3 8 12 13 19 10 10
-4 14 3 14 19 0 24 -10 32 -24 18 -9 -9 -36 -13 -133 -17 -44 -2 -85 -6 -91
-10 -5 -3 -12 -2 -16 1 -13 14 -111 2 -123 -15 -9 -10 -13 -12 -13 -3 0 7 -6
11 -12 8 -7 -2 -21 0 -32 5 -14 7 -16 7 -11 -2 5 -9 1 -10 -14 -5 -11 3 -21 3
-21 -2 0 -5 -48 -8 -106 -8 -58 1 -107 -2 -110 -7 -3 -4 -11 -5 -19 -1 -8 3
-15 0 -15 -7 0 -9 -4 -9 -13 -2 -13 11 -132 7 -177 -7 -14 -4 -80 -8 -147 -9
-105 -2 -123 0 -123 13 0 22 -17 18 -23 -5 -6 -24 -47 -28 -47 -4 0 8 -4 12
-10 9 -5 -3 -10 0 -11 7 -1 7 -4 2 -8 -11 -7 -27 -39 -37 -48 -15 -3 8 -20 14
-42 15 l-36 1 35 11 35 11 -35 4 c-20 1 -47 -1 -60 -7 -24 -10 -25 -10 -2 -10
12 -1 22 -5 22 -11 0 -19 -51 -15 -62 5 -4 7 -20 11 -37 9 -16 -2 -42 3 -58
11 -15 8 -34 15 -41 15 -6 0 -11 4 -10 9 2 5 -1 9 -7 9 -5 0 -9 -4 -7 -9 1 -5
-16 -9 -38 -9 -28 0 -40 4 -40 14 0 8 -7 16 -15 20 -9 3 -15 0 -15 -8 0 -16
-51 -28 -64 -15 -15 14 -26 11 -26 -7 0 -11 -6 -14 -20 -9 -11 4 -29 0 -42 -9
-30 -21 -38 -20 -38 4 0 25 -30 27 -31 3 0 -16 -1 -16 -8 1 -5 14 -10 16 -15
7 -6 -8 -11 -9 -21 -1 -14 12 -88 3 -93 -11 -7 -18 -20 -9 -27 19 l-7 27 -10
-27 c-7 -20 -17 -28 -33 -28 -13 0 -27 -4 -30 -10 -3 -5 -19 -10 -36 -10 -24
0 -29 4 -29 25 0 14 -4 25 -10 25 -5 0 -10 6 -10 14 0 14 -58 31 -69 20 -3 -3
3 -12 13 -20 16 -12 18 -16 7 -27 -11 -9 -14 -9 -18 1 -3 6 -8 10 -12 8 -11
-7 0 57 11 72 6 6 9 11 7 11 -2 -1 -11 -3 -19 -5z m-154 -70 c-9 -8 -20 -12
-26 -9 -15 9 -2 25 21 25 19 0 19 -1 5 -16z m801 -46 c-3 -8 -6 -5 -6 6 -1 11
2 17 5 13 3 -3 4 -12 1 -19z m-327 3 c0 -10 -30 -24 -37 -17 -3 3 -2 9 2 15 8
13 35 15 35 2z m545 -21 c3 -5 -3 -10 -15 -10 -12 0 -18 5 -15 10 3 6 10 10
15 10 5 0 12 -4 15 -10z m122 -16 c-3 -3 -12 -4 -19 -1 -8 3 -5 6 6 6 11 1 17
-2 13 -5z m-317 -20 c0 -2 -7 -4 -15 -4 -8 0 -15 4 -15 10 0 5 7 7 15 4 8 -4
15 -8 15 -10z m935 -4 c3 -5 1 -10 -4 -10 -6 0 -11 5 -11 10 0 6 2 10 4 10 3
0 8 -4 11 -10z m-2078 -82 c-3 -8 -6 -5 -6 6 -1 11 2 17 5 13 3 -3 4 -12 1
-19z m1653 -4 c0 -8 -5 -12 -10 -9 -6 4 -8 11 -5 16 9 14 15 11 15 -7z m-110
-60 c0 -8 -4 -12 -10 -9 -5 3 -10 10 -10 16 0 5 5 9 10 9 6 0 10 -7 10 -16z
m-173 -26 c-3 -8 -6 -5 -6 6 -1 11 2 17 5 13 3 -3 4 -12 1 -19z m-182 -18 c3
-5 1 -10 -4 -10 -6 0 -11 5 -11 10 0 6 2 10 4 10 3 0 8 -4 11 -10z m365 0 c0
-5 -4 -10 -10 -10 -5 0 -10 -7 -10 -16 0 -8 -5 -12 -10 -9 -7 4 -7 13 0 26 11
20 30 26 30 9z m-265 -30 c3 -5 1 -10 -4 -10 -6 0 -11 5 -11 10 0 6 2 10 4 10
3 0 8 -4 11 -10z m-98 -32 c-3 -8 -6 -5 -6 6 -1 11 2 17 5 13 3 -3 4 -12 1
-19z m-72 -48 c3 -5 -1 -10 -9 -10 -9 0 -16 5 -16 10 0 6 4 10 9 10 6 0 13 -4
16 -10z m-90 -10 c-3 -5 -11 -10 -16 -10 -6 0 -7 5 -4 10 3 6 11 10 16 10 6 0
7 -4 4 -10z m-468 -62 c-3 -8 -6 -5 -6 6 -1 11 2 17 5 13 3 -3 4 -12 1 -19z"/>
<path d="M5395 7120 c3 -5 8 -10 11 -10 2 0 4 5 4 10 0 6 -5 10 -11 10 -5 0
-7 -4 -4 -10z"/>
<path d="M5276 7105 c-3 -8 -1 -15 4 -15 6 0 10 7 10 15 0 8 -2 15 -4 15 -2 0
-6 -7 -10 -15z"/>
<path d="M5312 7100 c0 -14 2 -19 5 -12 2 6 2 18 0 25 -3 6 -5 1 -5 -13z"/>
<path d="M5180 7086 c0 -14 5 -26 10 -26 6 0 10 9 10 19 0 11 -4 23 -10 26 -6
4 -10 -5 -10 -19z"/>
<path d="M4929 7085 c-3 -2 -32 -7 -64 -11 -33 -3 -61 -7 -63 -9 -2 -2 -2 -15
0 -30 l3 -27 27 25 c29 27 38 25 39 -7 0 -17 3 -16 14 9 8 17 14 23 15 16 0
-12 3 -12 12 -3 9 9 14 7 24 -6 8 -10 13 -12 14 -4 0 6 7 12 15 12 8 0 15 9
15 20 0 14 -7 20 -23 20 -13 0 -26 -2 -28 -5z"/>
<path d="M4990 7070 c0 -12 8 -17 28 -16 21 1 28 5 25 17 -6 23 -53 22 -53 -1z"/>
<path d="M5063 7074 c-3 -9 -1 -20 6 -27 8 -8 11 -8 11 1 0 7 7 12 16 12 9 0
14 5 12 12 -6 17 -38 19 -45 2z"/>
<path d="M3095 7070 c-3 -6 1 -7 9 -4 18 7 21 14 7 14 -6 0 -13 -4 -16 -10z"/>
<path d="M2530 7034 c0 -14 3 -14 15 -4 8 7 15 14 15 16 0 2 -7 4 -15 4 -8 0
-15 -7 -15 -16z"/>
<path d="M3441 7024 c0 -11 3 -14 6 -6 3 7 2 16 -1 19 -3 4 -6 -2 -5 -13z"/>
<path d="M4505 6980 c3 -5 8 -10 11 -10 2 0 4 5 4 10 0 6 -5 10 -11 10 -5 0
-7 -4 -4 -10z"/>
<path d="M4210 6930 c0 -19 3 -21 12 -12 9 9 9 15 0 24 -9 9 -12 7 -12 -12z"/>
<path d="M4040 6894 c0 -8 5 -12 10 -9 6 4 8 11 5 16 -9 14 -15 11 -15 -7z"/>
<path d="M4070 6886 c0 -2 7 -7 16 -10 8 -3 12 -2 9 4 -6 10 -25 14 -25 6z"/>
<path d="M3884 6864 c3 -9 6 -23 6 -32 0 -12 3 -13 11 -5 13 13 3 53 -13 53
-5 0 -7 -7 -4 -16z"/>
<path d="M3685 6810 c3 -5 8 -10 11 -10 2 0 4 5 4 10 0 6 -5 10 -11 10 -5 0
-7 -4 -4 -10z"/>
<path d="M3961 6804 c0 -11 3 -14 6 -6 3 7 2 16 -1 19 -3 4 -6 -2 -5 -13z"/>
<path d="M4020 6811 c0 -5 5 -13 10 -16 6 -3 10 -2 10 4 0 5 -4 13 -10 16 -5
3 -10 2 -10 -4z"/>
<path d="M3512 6790 c0 -14 2 -19 5 -12 2 6 2 18 0 25 -3 6 -5 1 -5 -13z"/>
<path d="M3557 6796 c-18 -14 -23 -62 -7 -86 10 -16 13 -8 10 29 -1 14 2 21 9
17 6 -4 11 -2 11 3 0 6 -5 11 -11 11 -8 0 -7 5 1 15 17 20 9 27 -13 11z"/>
<path d="M3901 6794 c0 -11 3 -14 6 -6 3 7 2 16 -1 19 -3 4 -6 -2 -5 -13z"/>
<path d="M3710 6791 c0 -5 5 -13 10 -16 6 -3 10 -2 10 4 0 5 -4 13 -10 16 -5
3 -10 2 -10 -4z"/>
<path d="M3599 6753 c4 -35 5 -36 12 -13 11 39 10 50 -4 50 -9 0 -12 -11 -8
-37z"/>
<path d="M3510 6741 c0 -5 5 -13 10 -16 6 -3 10 -2 10 4 0 5 -4 13 -10 16 -5
3 -10 2 -10 -4z"/>
<path d="M3661 6734 c0 -11 3 -14 6 -6 3 7 2 16 -1 19 -3 4 -6 -2 -5 -13z"/>
<path d="M3723 6715 c0 -22 2 -30 4 -17 2 12 2 30 0 40 -3 9 -5 -1 -4 -23z"/>
<path d="M3350 6719 c0 -5 5 -7 10 -4 6 3 10 8 10 11 0 2 -4 4 -10 4 -5 0 -10
-5 -10 -11z"/>
<path d="M3411 6714 c0 -11 3 -14 6 -6 3 7 2 16 -1 19 -3 4 -6 -2 -5 -13z"/>
<path d="M3611 6664 c0 -11 3 -14 6 -6 3 7 2 16 -1 19 -3 4 -6 -2 -5 -13z"/>
<path d="M9185 6660 c3 -5 11 -10 16 -10 6 0 7 5 4 10 -3 6 -11 10 -16 10 -6
0 -7 -4 -4 -10z"/>
<path d="M1536 6645 c-3 -8 -1 -15 4 -15 6 0 10 7 10 15 0 8 -2 15 -4 15 -2 0
-6 -7 -10 -15z"/>
<path d="M3276 6647 c3 -10 9 -15 12 -12 3 3 0 11 -7 18 -10 9 -11 8 -5 -6z"/>
<path d="M3000 6600 c0 -5 7 -10 15 -10 8 0 15 5 15 10 0 6 -7 10 -15 10 -8 0
-15 -4 -15 -10z"/>
<path d="M2201 6544 c0 -11 3 -14 6 -6 3 7 2 16 -1 19 -3 4 -6 -2 -5 -13z"/>
<path d="M2630 6550 c0 -5 5 -10 10 -10 6 0 10 5 10 10 0 6 -4 10 -10 10 -5 0
-10 -4 -10 -10z"/>
<path d="M2471 6524 c0 -11 3 -14 6 -6 3 7 2 16 -1 19 -3 4 -6 -2 -5 -13z"/>
<path d="M874 6225 c-3 -13 -4 -30 -1 -37 3 -7 6 -1 6 15 1 17 6 27 16 27 8 0
15 5 15 10 0 21 -30 9 -36 -15z"/>
<path d="M720 6200 c0 -5 4 -10 9 -10 6 0 13 5 16 10 3 6 -1 10 -9 10 -9 0
-16 -4 -16 -10z"/>
<path d="M4396 6007 c3 -10 9 -15 12 -12 3 3 0 11 -7 18 -10 9 -11 8 -5 -6z"/>
<path d="M4595 6000 c3 -5 8 -10 11 -10 2 0 4 5 4 10 0 6 -5 10 -11 10 -5 0
-7 -4 -4 -10z"/>
<path d="M2971 5936 c-7 -8 -8 -17 -3 -20 6 -3 15 1 21 8 7 8 8 17 3 20 -6 3
-15 -1 -21 -8z"/>
<path d="M3360 5919 c0 -5 5 -7 10 -4 6 3 10 8 10 11 0 2 -4 4 -10 4 -5 0 -10
-5 -10 -11z"/>
<path d="M9040 5749 c0 -5 5 -7 10 -4 6 3 10 8 10 11 0 2 -4 4 -10 4 -5 0 -10
-5 -10 -11z"/>
<path d="M8450 4946 c0 -2 9 -6 20 -9 11 -3 20 -1 20 4 0 5 -9 9 -20 9 -11 0
-20 -2 -20 -4z"/>
<path d="M1516 4718 c-2 -7 -8 -28 -14 -46 -10 -30 -8 -38 20 -77 18 -25 33
-43 35 -41 2 2 -4 37 -14 77 -10 41 -17 80 -16 87 0 6 -1 12 -3 12 -3 0 -6 -6
-8 -12z"/>
<path d="M6938 4563 c7 -3 16 -2 19 1 4 3 -2 6 -13 5 -11 0 -14 -3 -6 -6z"/>
<path d="M6640 4390 c0 -5 4 -10 9 -10 6 0 13 5 16 10 3 6 -1 10 -9 10 -9 0
-16 -4 -16 -10z"/>
<path d="M2606 3721 c5 -5 32 -12 59 -15 l50 -5 -40 14 c-47 16 -83 19 -69 6z"/>
<path d="M5348 3443 c6 -2 18 -2 25 0 6 3 1 5 -13 5 -14 0 -19 -2 -12 -5z"/>
<path d="M1769 3241 c-25 -9 -57 -24 -70 -33 -23 -17 -22 -17 20 -3 27 10 48
12 55 6 7 -6 20 -4 36 4 16 9 31 10 42 4 10 -6 19 -5 23 1 10 17 43 11 47 -7
2 -10 6 -13 10 -8 3 6 0 19 -8 29 -18 26 -95 29 -155 7z"/>
<path d="M2258 3253 c7 -3 16 -2 19 1 4 3 -2 6 -13 5 -11 0 -14 -3 -6 -6z"/>
<path d="M3015 3021 c-11 -5 -24 -6 -28 -4 -4 3 -14 0 -21 -6 -6 -6 -31 -13
-54 -15 -22 -3 -60 -10 -84 -16 -24 -5 -82 -10 -129 -10 -70 0 -89 -3 -102
-18 -21 -23 -22 -78 -2 -86 8 -3 12 -12 9 -20 -3 -8 5 -21 18 -30 12 -9 17
-16 11 -16 -11 0 -27 -30 -19 -37 2 -2 11 3 19 12 9 8 30 17 46 19 17 2 38 9
46 16 8 7 41 25 72 41 79 40 100 53 129 78 14 12 37 27 52 34 70 30 105 85 37
58z"/>
<path d="M3596 3004 c-5 -14 -4 -15 9 -4 17 14 19 20 6 20 -5 0 -12 -7 -15
-16z"/>
<path d="M3653 3007 c24 -20 21 -27 -10 -27 -46 0 -14 -15 35 -16 26 0 72 -7
102 -14 30 -8 58 -13 61 -12 4 1 19 -10 33 -23 15 -14 32 -25 38 -25 6 0 9
-14 6 -34 -4 -34 -3 -34 22 -21 25 13 267 38 305 32 32 -6 31 -35 -2 -42 -55
-12 -119 -38 -178 -73 -72 -42 -132 -92 -111 -92 8 0 17 6 19 13 4 9 8 8 17
-3 10 -13 11 -12 6 4 -5 14 -3 17 11 11 10 -4 30 -10 46 -13 15 -2 27 -9 27
-14 0 -7 17 -8 42 -5 30 4 49 14 64 33 14 17 28 25 38 21 9 -4 16 -2 16 3 0 6
-5 10 -12 10 -9 0 -9 3 -1 11 6 6 9 18 6 25 -3 8 5 17 19 23 24 9 28 19 29 69
1 19 3 21 16 10 14 -11 15 -10 8 12 -9 29 -22 40 -51 40 -11 0 -47 8 -80 19
-52 16 -156 37 -289 57 -22 3 -58 6 -80 7 -22 0 -42 4 -45 8 -3 4 -32 10 -65
14 -53 5 -58 4 -42 -8z"/>
<path d="M3720 2931 c0 -11 25 -21 56 -21 35 0 30 16 -7 24 -42 8 -49 8 -49
-3z"/>
<path d="M811 2738 c-5 -14 -23 -40 -40 -59 -29 -32 -31 -37 -26 -97 4 -48 12
-73 32 -103 40 -55 55 -52 32 8 -15 38 -13 127 5 203 16 66 14 92 -3 48z"/>
<path d="M4020 2640 c0 -13 18 -22 24 -11 3 5 -1 11 -9 15 -8 3 -15 1 -15 -4z"/>
<path d="M4030 2576 c0 -9 5 -16 10 -16 6 0 10 4 10 9 0 6 -4 13 -10 16 -5 3
-10 -1 -10 -9z"/>
<path d="M3980 2521 c0 -5 3 -16 6 -25 5 -14 7 -14 22 0 13 13 13 17 1 25 -18
11 -29 11 -29 0z"/>
<path d="M3810 2480 c0 -11 5 -20 10 -20 6 0 10 9 10 20 0 11 -4 20 -10 20 -5
0 -10 -9 -10 -20z"/>
<path d="M3840 2490 c0 -6 7 -10 15 -10 8 0 15 2 15 4 0 2 -7 6 -15 10 -8 3
-15 1 -15 -4z"/>
<path d="M3920 2455 c0 -11 11 -15 40 -15 29 0 40 4 40 15 0 11 -11 15 -40 15
-29 0 -40 -4 -40 -15z"/>
<path d="M6338 2463 c-10 -2 -18 -9 -18 -14 0 -15 43 -7 48 9 4 12 0 13 -30 5z"/>
<path d="M6320 2400 c0 -5 5 -10 10 -10 6 0 10 5 10 10 0 6 -4 10 -10 10 -5 0
-10 -4 -10 -10z"/>
<path d="M6457 2363 c-13 -34 -13 -39 1 -44 47 -17 85 21 60 60 -20 32 -44 26
-61 -16z"/>
<path d="M6580 2326 c0 -21 11 -46 20 -46 12 0 20 28 14 45 -8 19 -34 20 -34
1z"/>
<path d="M4145 2310 c3 -5 8 -10 11 -10 2 0 4 5 4 10 0 6 -5 10 -11 10 -5 0
-7 -4 -4 -10z"/>
<path d="M5680 2313 c1 -10 72 -44 78 -38 3 2 -6 13 -19 24 -24 20 -59 28 -59
14z"/>
<path d="M5857 2263 c-14 -13 -6 -23 18 -23 18 0 23 4 19 15 -6 16 -26 20 -37
8z"/>
<path d="M6640 2255 c0 -8 4 -15 10 -15 5 0 7 7 4 15 -4 8 -8 15 -10 15 -2 0
-4 -7 -4 -15z"/>
<path d="M5751 2224 c0 -11 3 -14 6 -6 3 7 2 16 -1 19 -3 4 -6 -2 -5 -13z"/>
<path d="M6168 2233 c7 -3 16 -2 19 1 4 3 -2 6 -13 5 -11 0 -14 -3 -6 -6z"/>
<path d="M5864 2216 c-4 -11 0 -24 9 -34 15 -14 17 -14 23 2 4 11 0 24 -9 34
-15 14 -17 14 -23 -2z"/>
<path d="M6022 2223 c-6 -3 -10 -9 -6 -14 7 -12 44 -12 44 0 0 11 -21 19 -38
14z"/>
<path d="M4960 2200 c0 -5 5 -10 10 -10 6 0 10 5 10 10 0 6 -4 10 -10 10 -5 0
-10 -4 -10 -10z"/>
<path d="M4365 2180 c27 -12 35 -12 35 0 0 6 -12 10 -27 9 -25 0 -26 -1 -8 -9z"/>
<path d="M5696 2165 c-3 -9 0 -15 9 -15 9 0 12 6 9 15 -4 8 -7 15 -9 15 -2 0
-5 -7 -9 -15z"/>
<path d="M6015 2166 c-19 -15 -18 -15 20 -15 22 0 49 4 60 9 l20 9 -20 0 c-11
1 -29 4 -40 7 -11 3 -29 -2 -40 -10z"/>
<path d="M5624 2115 c-10 -25 6 -35 52 -35 l45 0 -7 -35 c-11 -59 -10 -69 9
-73 10 -2 17 3 17 12 0 8 11 16 28 18 l27 4 -27 12 c-27 11 -38 32 -18 32 6 0
10 11 10 25 0 17 -4 23 -14 19 -8 -3 -24 0 -36 6 -18 9 -24 9 -30 0 -6 -10
-12 -7 -21 9 -16 25 -27 27 -35 6z"/>
<path d="M5561 2066 c-10 -12 -8 -17 8 -25 28 -15 31 -14 31 14 0 28 -21 33
-39 11z"/>
<path d="M5150 2060 c0 -5 5 -10 11 -10 5 0 7 5 4 10 -3 6 -8 10 -11 10 -2 0
-4 -4 -4 -10z"/>
<path d="M2865 2030 c-8 -13 9 -20 24 -11 10 6 9 10 -3 14 -8 3 -18 2 -21 -3z"/>
<path d="M5183 2033 c-18 -7 -16 -23 2 -23 8 0 15 7 15 15 0 8 -1 15 -2 14 -2
0 -9 -3 -15 -6z"/>
<path d="M1380 2017 c0 -8 -9 -22 -21 -33 -14 -13 -19 -26 -15 -44 3 -17 -2
-37 -15 -56 -10 -16 -19 -38 -19 -49 0 -18 2 -18 23 5 30 33 51 80 35 80 -6 0
0 10 14 23 32 28 44 72 22 81 -22 8 -24 8 -24 -7z"/>
<path d="M1420 1968 c0 -15 -4 -28 -10 -28 -14 0 -13 -37 2 -46 8 -5 9 -2 5
10 -5 13 -3 17 6 13 10 -4 13 2 9 19 -4 24 -3 24 24 12 16 -6 34 -16 41 -21 7
-5 24 -2 43 8 34 18 65 13 57 -8 -10 -26 10 -38 61 -39 35 -1 53 -6 57 -16 4
-11 9 -11 19 -3 7 6 16 8 19 4 4 -3 7 7 7 24 0 22 -7 33 -27 44 -16 8 -35 21
-43 30 -20 22 -170 37 -170 17 0 -11 -2 -11 -9 0 -5 8 -24 12 -49 11 -39 -3
-42 -5 -42 -31z m253 -5 c-7 -2 -19 -2 -25 0 -7 3 -2 5 12 5 14 0 19 -2 13 -5z
m67 -51 c0 -4 -9 -8 -20 -8 -11 0 -20 4 -20 8 0 4 9 8 20 8 11 0 20 -4 20 -8z"/>
<path d="M6745 1971 c-3 -5 -1 -12 5 -16 5 -3 10 1 10 9 0 18 -6 21 -15 7z"/>
<path d="M5587 1937 c-4 -10 -4 -30 -1 -44 5 -19 3 -24 -7 -21 -8 3 -15 14
-17 26 -2 12 -8 22 -13 22 -14 0 -11 -44 5 -65 12 -16 19 -18 43 -10 22 8 29
17 31 43 2 23 -1 32 -12 32 -8 0 -16 8 -18 18 -3 16 -4 16 -11 -1z"/>
<path d="M1775 1910 c4 -6 11 -8 16 -5 14 9 11 15 -7 15 -8 0 -12 -5 -9 -10z"/>
<path d="M5360 1880 c0 -5 5 -10 10 -10 6 0 10 5 10 10 0 6 -4 10 -10 10 -5 0
-10 -4 -10 -10z"/>
<path d="M3115 1870 c-3 -5 -2 -10 4 -10 5 0 13 5 16 10 3 6 2 10 -4 10 -5 0
-13 -4 -16 -10z"/>
<path d="M2713 1855 c0 -8 4 -12 9 -9 5 3 6 10 3 15 -9 13 -12 11 -12 -6z"/>
<path d="M2396 1841 c-3 -4 6 -6 19 -3 14 2 25 6 25 8 0 8 -39 4 -44 -5z"/>
<path d="M3048 1833 c7 -3 16 -2 19 1 4 3 -2 6 -13 5 -11 0 -14 -3 -6 -6z"/>
<path d="M3178 1833 c7 -3 16 -2 19 1 4 3 -2 6 -13 5 -11 0 -14 -3 -6 -6z"/>
<path d="M2543 1822 c-13 -2 -23 -9 -23 -15 0 -17 55 -67 74 -67 8 0 18 -5 21
-11 4 -6 14 -8 22 -5 8 3 11 1 8 -4 -8 -12 15 -13 34 -1 12 8 13 12 1 26 -7 8
-20 15 -29 14 -36 -3 -61 2 -61 12 0 7 10 9 25 5 34 -9 49 1 30 20 -11 11 -25
14 -48 9 -21 -4 -27 -3 -19 3 11 8 11 10 0 14 -7 2 -23 2 -35 0z"/>
<path d="M2677 1808 c-8 -5 -4 -8 10 -8 12 0 24 -6 26 -12 4 -10 6 -10 6 -1 1
9 11 10 33 6 20 -4 29 -3 25 4 -8 13 -84 21 -100 11z"/>
<path d="M1292 1788 c-14 -14 -16 -28 -3 -28 9 0 24 30 18 36 -2 2 -9 -2 -15
-8z"/>
<path d="M2975 1790 c-4 -6 -11 -8 -16 -5 -5 4 -9 1 -9 -4 0 -6 9 -11 20 -11
11 0 20 5 20 11 0 6 7 8 16 5 8 -3 12 -2 9 4 -8 13 -32 13 -40 0z"/>
<path d="M2340 1775 c0 -8 2 -15 4 -15 2 0 6 7 10 15 3 8 1 15 -4 15 -6 0 -10
-7 -10 -15z"/>
<path d="M2481 1759 c-13 -5 -33 -7 -45 -3 -21 6 -21 6 1 -10 12 -9 27 -15 34
-14 6 2 13 -3 15 -10 1 -7 0 -9 -2 -4 -3 5 -16 7 -31 4 -18 -3 -31 1 -41 14
-14 18 -14 18 -8 1 5 -16 2 -18 -24 -12 -23 5 -30 3 -30 -9 0 -9 -6 -16 -14
-16 -7 0 -19 -7 -26 -15 -7 -8 -21 -15 -31 -15 -29 0 -22 -18 8 -22 14 -2 28
-9 31 -16 3 -9 -4 -11 -25 -6 -15 4 -32 10 -37 15 -15 13 -46 -24 -40 -48 4
-16 17 -23 45 -28 21 -4 42 -4 47 -1 5 3 20 -1 35 -9 28 -15 37 -11 37 17 0
10 9 23 19 30 18 11 18 12 -3 30 l-21 19 25 -7 c27 -8 35 -9 95 -6 l40 3 -27
17 c-16 9 -28 20 -28 24 0 4 32 5 70 3 l71 -5 -28 25 c-79 71 -75 69 -112 54z
m-116 -169 c3 -5 -3 -10 -14 -10 -12 0 -21 5 -21 10 0 6 6 10 14 10 8 0 18 -4
21 -10z"/>
<path d="M2200 1740 c0 -19 51 -23 68 -6 16 16 15 17 -12 4 -23 -10 -30 -10
-34 0 -4 14 -22 16 -22 2z"/>
<path d="M2235 1679 c-4 -6 -5 -12 -2 -15 2 -3 7 2 10 11 7 17 1 20 -8 4z"/>
<path d="M2916 1681 c-3 -4 6 -6 19 -3 14 2 25 6 25 8 0 8 -39 4 -44 -5z"/>
<path d="M2110 1621 c0 -10 24 -21 48 -21 11 0 6 6 -12 15 -33 18 -36 18 -36
6z"/>
<path d="M2072 1603 c-6 -2 -10 -9 -7 -13 7 -11 35 -2 35 11 0 10 -8 10 -28 2z"/>
<path d="M2035 1550 c3 -5 10 -10 16 -10 5 0 9 5 9 10 0 6 -7 10 -16 10 -8 0
-12 -4 -9 -10z"/>
<path d="M1920 1450 c0 -5 5 -10 10 -10 6 0 10 5 10 10 0 6 -4 10 -10 10 -5 0
-10 -4 -10 -10z"/>
<path d="M4 1314 c3 -9 6 -20 6 -25 0 -5 11 -9 24 -9 13 0 26 -6 29 -12 3 -10
7 -10 17 -2 9 9 5 14 -20 19 -20 4 -34 15 -37 26 -3 10 -10 19 -15 19 -6 0 -7
-7 -4 -16z"/>
<path d="M87 1239 c7 -7 15 -10 18 -7 3 3 -2 9 -12 12 -14 6 -15 5 -6 -5z"/>
<path d="M160 1136 c0 -10 30 -66 35 -66 12 0 3 29 -15 50 -11 13 -20 20 -20
16z"/>
<path d="M218 1021 c12 -11 22 -25 22 -32 0 -7 2 -10 5 -7 4 3 3 17 -1 32 -4
18 -13 26 -28 26 l-21 -1 23 -18z"/>
<path d="M310 895 c0 -9 6 -12 15 -9 8 4 12 10 9 15 -8 14 -24 10 -24 -6z"/>
<path d="M355 850 c-4 -6 1 -20 12 -32 10 -11 18 -23 18 -27 0 -3 3 -5 8 -3 4
1 7 -5 7 -13 0 -8 -9 -15 -20 -15 -31 0 -23 -18 15 -34 21 -9 35 -22 36 -33 0
-10 3 -13 6 -5 7 17 23 15 23 -3 0 -8 -4 -15 -10 -15 -5 0 -10 -11 -10 -25 0
-16 6 -25 15 -25 9 0 15 9 15 21 0 21 1 21 25 -5 14 -15 25 -38 25 -52 0 -14
6 -24 15 -24 7 0 18 -6 22 -14 4 -7 26 -25 47 -40 21 -14 34 -26 27 -26 -6 0
-11 -7 -11 -15 0 -8 -4 -15 -10 -15 -5 0 -10 6 -10 14 0 14 -21 26 -43 26 -8
0 -8 -3 -2 -8 12 -8 31 -47 40 -79 4 -14 14 -23 26 -23 24 0 24 -8 -1 -40 -24
-30 -26 -48 -4 -29 13 10 17 10 25 -2 12 -20 11 -49 -2 -47 -13 3 -31 -50 -23
-64 4 -5 12 -7 19 -4 7 2 15 -4 18 -15 3 -10 16 -23 30 -28 14 -5 27 -16 30
-23 4 -10 6 -10 6 0 1 9 8 9 32 -3 26 -14 30 -21 25 -43 -3 -15 -3 -21 0 -14
8 16 24 15 24 -2 0 -9 8 -12 25 -8 27 5 29 9 15 32 -6 9 -5 19 3 28 8 11 7 16
-5 23 -12 6 -15 21 -13 57 2 46 1 49 -21 44 -21 -4 -24 0 -24 26 0 32 -22 57
-43 49 -9 -3 -13 7 -13 35 -1 22 -8 44 -17 51 -26 20 -67 104 -67 136 0 16 -4
33 -10 36 -5 3 -10 15 -10 26 0 11 -7 19 -16 19 -9 0 -18 9 -21 20 -3 11 -16
23 -29 26 -13 3 -24 12 -24 19 0 8 -21 34 -47 59 -27 25 -64 62 -84 82 -25 24
-39 32 -44 24z m75 -95 c10 -12 10 -15 -4 -15 -9 0 -16 7 -16 15 0 8 2 15 4
15 2 0 9 -7 16 -15z m139 -182 c-15 -18 -34 -1 -25 22 5 14 9 15 21 5 12 -10
13 -16 4 -27z m91 -167 c0 -3 -4 -8 -10 -11 -5 -3 -10 -1 -10 4 0 6 5 11 10
11 6 0 10 -2 10 -4z"/>
<path d="M787 551 c3 -14 0 -23 -11 -27 -22 -9 -20 -18 9 -34 13 -7 22 -17 19
-22 -8 -12 -42 -10 -47 5 -8 23 -14 2 -9 -35 3 -30 9 -38 26 -39 11 0 15 -3 9
-6 -18 -7 -16 -30 3 -37 9 -4 14 -13 10 -21 -8 -23 12 -18 25 6 8 17 8 31 -1
59 -9 27 -9 42 -1 58 8 15 8 21 -2 25 -7 2 -12 20 -12 42 0 21 -5 40 -12 42
-7 3 -9 -3 -6 -16z"/>
<path d="M3117 536 c-4 -10 -1 -13 9 -9 7 3 14 9 14 14 0 14 -17 10 -23 -5z"/>
<path d="M4545 400 c3 -5 11 -10 16 -10 6 0 7 5 4 10 -3 6 -11 10 -16 10 -6 0
-7 -4 -4 -10z"/>
<path d="M2100 345 c0 -13 4 -14 20 -5 11 6 20 13 20 15 0 3 -9 5 -20 5 -11 0
-20 -7 -20 -15z"/>
<path d="M2080 270 c0 -5 4 -10 9 -10 6 0 13 5 16 10 3 6 -1 10 -9 10 -9 0
-16 -4 -16 -10z"/>
<path d="M1050 211 c0 -6 5 -13 10 -16 6 -3 10 1 10 9 0 9 -4 16 -10 16 -5 0
-10 -4 -10 -9z"/>
<path d="M6350 123 c0 -13 -2 -14 -17 -2 -18 15 -18 15 3 -35 4 -11 0 -13 -15
-9 -12 3 -21 9 -21 14 0 20 -18 7 -24 -18 -5 -17 -3 -29 6 -35 9 -6 1 -8 -22
-5 -36 5 -70 -7 -70 -23 0 -6 22 -10 49 -10 40 0 53 4 65 22 9 12 18 19 22 15
13 -12 33 21 27 44 -5 19 -3 22 7 12 16 -15 43 8 35 29 -8 20 -45 20 -45 1z"/>
<path d="M1558 3 c7 -3 16 -2 19 1 4 3 -2 6 -13 5 -11 0 -14 -3 -6 -6z"/>
</g>
</svg>
